<?xml version="1.0" encoding="UTF-8" standalone="no"?><!DOCTYPE svg PUBLIC "-//W3C//DTD SVG 1.1//EN" "http://www.w3.org/Graphics/SVG/1.1/DTD/svg11.dtd"><svg width="100%" height="100%" viewBox="0 0 426 363" version="1.1" xmlns="http://www.w3.org/2000/svg" xmlns:xlink="http://www.w3.org/1999/xlink" xml:space="preserve" xmlns:serif="http://www.serif.com/" style="fill-rule:evenodd;clip-rule:evenodd;stroke-linejoin:round;stroke-miterlimit:2;"><g id="imprendi"><path d="M214.138,250.141l-99.965,99.245c-7.06,7.062 -4.707,12.815 5.296,12.815l167.83,0c9.936,0 23.928,-5.753 30.989,-12.815l12.16,-12.029l-116.31,-87.216Z" style="fill:#263238;fill-rule:nonzero;"/><path d="M119.338,108.137c-10.003,-0 -24.059,-5.688 -31.186,-12.553l-31.251,-30.139c-7.126,-6.931 -4.838,-12.619 5.099,-12.619l167.83,0c10.003,0 23.994,5.688 31.186,12.619l31.186,30.139c7.191,6.865 4.903,12.553 -5.1,12.553l-167.764,-0Z" style="fill:#263238;fill-rule:nonzero;"/><path d="M43.303,32.101c-10.003,-0 -24.125,-5.623 -31.383,-12.422l-7.648,-7.257c-7.258,-6.799 -5.035,-12.422 4.903,-12.422l167.828,0c10.003,0 24.125,5.623 31.382,12.422l7.649,7.257c7.258,6.799 5.035,12.422 -4.969,12.422l-167.762,-0Z" style="fill:#263238;fill-rule:nonzero;"/><path d="M331.037,336.703l-193.589,-192.15c-7.125,-7.061 -4.772,-12.814 5.231,-12.814l167.828,0c9.938,0 23.93,5.753 30.99,12.814l78.716,77.997c7.062,6.996 7.062,18.503 0,25.564l-89.176,88.589Z" style="fill:#263238;fill-rule:nonzero;"/></g></svg>