<?xml version="1.0" encoding="UTF-8" standalone="no"?><!DOCTYPE svg PUBLIC "-//W3C//DTD SVG 1.1//EN" "http://www.w3.org/Graphics/SVG/1.1/DTD/svg11.dtd"><svg width="100%" height="100%" viewBox="0 0 800 450" version="1.1" xmlns="http://www.w3.org/2000/svg" xmlns:xlink="http://www.w3.org/1999/xlink" xml:space="preserve" xmlns:serif="http://www.serif.com/" style="fill-rule:evenodd;clip-rule:evenodd;stroke-linejoin:round;stroke-miterlimit:2;"><g id="jelastic"><g id="word"><path d="M208.48,236.97l21.649,-0l-0,13.11c-0.193,3.226 0.936,6.395 3.126,8.772c2.774,2.088 6.221,3.085 9.681,2.8c3.555,0.3 7.07,-0.951 9.635,-3.43c1.68,-2.076 2.496,-6.555 2.496,-13.414l0,-63.665c-0.04,-3.017 1.209,-5.912 3.43,-7.955c2.171,-2.144 5.114,-3.329 8.165,-3.289l10.638,-0l-0,75.819c0.134,5.011 -0.186,10.024 -0.957,14.977c-0.806,3.039 -2.184,5.897 -4.059,8.422c-3.115,3.669 -7.137,6.46 -11.664,8.095c-5.673,1.709 -11.572,2.551 -17.497,2.496c-9.681,0 -20.879,-2.006 -27.785,-9.331c-2.433,-2.438 -4.248,-5.421 -5.295,-8.702c-1.217,-5.354 -1.742,-10.842 -1.563,-16.33l-0,-8.375Zm135.681,15.56l15.607,0c-1.803,8.031 -6.454,15.144 -13.088,20.016c-7.11,4.999 -15.67,7.524 -24.355,7.186c-11.851,-0 -21.159,-3.873 -27.808,-11.665c-6.649,-7.792 -10.008,-18.196 -10.008,-32.147c-0,-13.313 3.235,-23.71 9.704,-31.191c6.47,-7.481 15.74,-11.369 27.809,-11.665c12.442,0 22.123,3.741 29.044,11.222c6.921,7.481 10.249,18.181 9.985,32.1c0.03,1.872 -0.079,3.744 -0.327,5.599l-54.006,0c0.21,6.509 1.749,11.315 4.666,14.464c3.034,3.505 7.554,5.376 12.177,5.039c9.659,0 9.075,-3.056 14.814,-7.535c1.704,-1.143 3.738,-1.692 5.786,-1.563l-0,0.14Zm-37.443,-24.449l31.844,0c-0.004,-4.518 -1.542,-8.904 -4.363,-12.434c-3.038,-3.033 -7.24,-4.615 -11.524,-4.339c-4.184,-0.164 -8.255,1.407 -11.245,4.339c-3.1,3.386 -4.773,7.844 -4.666,12.434l-0.046,0Zm61.355,-58.182l11.268,-0c2.797,-0.048 5.501,1.018 7.512,2.963c2.047,1.886 3.187,4.565 3.126,7.348l-0,99.498l-21.906,0l0,-109.809Zm79.062,66.347c-3.937,1.793 -8.06,3.147 -12.294,4.036l-7.186,1.563c-5.949,1.657 -10.335,4.06 -10.335,10.918c-0.135,2.778 0.888,5.492 2.823,7.489c2.296,1.822 5.196,2.714 8.119,2.496c0.499,0.044 1.001,0.065 1.502,0.065c9.509,0 17.334,-7.824 17.334,-17.333c-0,-0.466 -0.019,-0.931 -0.056,-1.395l-0,-7.839l0.093,0Zm4.992,38.307c-12.551,6.578 -34.643,7.558 -46.658,-1.097c-5.614,-4.044 -8.429,-10.755 -8.445,-20.133c0,-8.771 2.566,-15 7.676,-18.663c12.014,-8.865 41.992,-7.162 41.992,-16.867c-0,-6.579 -8.679,-7.512 -13.741,-7.512c-2.661,-0.041 -5.308,0.393 -7.815,1.283c-2.257,0.832 -4.063,2.578 -4.969,4.806l-20.996,0c0.718,-6.351 3.934,-12.162 8.935,-16.144c5.614,-4.79 13.624,-7.185 24.028,-7.185c11.665,0 20.413,1.983 26.245,5.949c5.923,3.829 9.397,10.52 9.122,17.567l0,28.344c0,8.337 -1.508,14.845 -4.526,19.527c-2.62,4.279 -6.343,7.777 -10.778,10.125l-0.07,-0Zm22.373,-23.936l21.229,0c-0.037,3.677 1.702,7.155 4.666,9.332c3.762,2.245 8.104,3.332 12.481,3.126c3.352,0.092 6.675,-0.662 9.658,-2.193c2.266,-1.095 3.724,-3.386 3.756,-5.902c0,-3.764 -4.378,-6.571 -13.134,-8.422c-2.857,-0.424 -5.68,-1.056 -8.445,-1.89c-11.058,-2.69 -18.453,-5.902 -22.186,-9.635c-4.204,-3.813 -6.497,-9.307 -6.252,-14.977c-0.155,-7.591 3.185,-14.847 9.051,-19.666c6.222,-4.775 14.348,-7.162 24.379,-7.162c10.887,-0 19.527,2.395 25.919,7.185c5.977,5.066 9.497,12.463 9.658,20.296l-13.414,0c-9.728,0 -7.559,-10.708 -21.836,-10.708c-3.219,-0.194 -6.435,0.449 -9.332,1.867c-1.865,1.251 -2.932,3.403 -2.799,5.645c-0,7.745 34.34,10.522 44.325,19.037c4.07,3.9 6.272,9.368 6.042,15c0.41,8.301 -3.348,16.281 -10.008,21.253c-6.221,4.588 -15.553,6.882 -27.995,6.882c-11.882,-0 -20.724,-2.395 -26.525,-7.185c-6.159,-4.791 -9.238,-11.774 -9.238,-20.95l-0,-0.933Zm115.222,28.415c-13.998,0.863 -34.364,3.802 -34.364,-15.607l0,-91.823l11.268,-0c2.72,0.016 5.319,1.147 7.185,3.126c2.033,1.955 3.165,4.669 3.126,7.488l0,13.998l12.785,-0l-0,4.386c0.1,2.879 -1.039,5.666 -3.126,7.652c-1.995,1.958 -4.695,3.035 -7.489,2.986l-2.193,-0l0,46.168c0,3.546 2.076,5.295 6.229,5.295l6.555,0l0,16.331l0.024,-0Zm7.185,-82.352l11.268,0c2.825,-0.028 5.541,1.102 7.512,3.127c2.012,1.94 3.143,4.623 3.126,7.418l-0,72.32l-21.906,-0l-0,-82.865Zm88.673,55.733l15.607,0c-1.819,8.018 -6.477,15.113 -13.11,19.97c-14.604,10.871 -39.846,9.845 -52.141,-4.363c-6.656,-7.48 -9.984,-18.196 -9.984,-32.147c-0,-13.313 3.227,-23.71 9.681,-31.191c13.624,-15.747 42.972,-15.397 56.829,-0.326c3.79,4.682 6.549,10.112 8.096,15.933l-21.836,0c-0.791,-1.709 -1.846,-3.284 -3.126,-4.665c-3.064,-3.088 -7.326,-4.691 -11.665,-4.386c-4.179,-0.151 -8.241,1.428 -11.221,4.362c-3.717,4.137 -5.576,10.996 -5.576,20.576c0,9.581 1.874,16.354 5.622,20.32c3.041,3.493 7.559,5.354 12.178,5.016c4.725,0.331 9.349,-1.529 12.528,-5.039c0.719,-0.965 1.558,-1.835 2.496,-2.59c1.636,-1.158 3.624,-1.71 5.622,-1.563l0,0.093Z" style="fill:#5e6981;fill-rule:nonzero;"/><path d="M619.793,192.575c-3.332,-1.527 -6.821,-2.685 -10.405,-3.453c-6.392,-1.377 -14.954,-2.17 -14.954,-10.661c0,-11.525 15.327,-10.032 20.996,-4.246c2.953,3.142 4.496,7.358 4.269,11.664l0,6.672l0.094,0.024Z" style="fill:#0987f7;fill-rule:nonzero;"/></g><g id="icon"><path d="M74.314,238.925l24.319,-14.043l0,-28.087l-24.319,14.043l0,28.087Zm24.319,-14.043l0,-28.087l24.319,14.043l0,28.087l-24.319,-14.043Z" style="fill:#0064c8;"/><path d="M146.048,197.496c-1.826,-3.033 -4.893,-4.191 -7.829,-5.92l-30.582,-17.665c-8.743,-5.089 -8.743,-5.317 -18.04,0.016l-15.299,8.825l48.654,28.038l0,28.135l-24.319,14.044l-24.335,-14.044l-0,-28.135l-24.336,14.092l0,17.648c0,10.667 0.196,10.537 9.02,15.56l30.615,17.746c8.824,5.089 8.824,5.334 18.04,0l30.631,-17.746c8.824,-5.088 9.004,-4.991 9.004,-15.625l-0,-35.28c-0,-3.458 0.554,-6.639 -1.224,-9.689Z" style="fill:url(#_Linear1);"/><path d="M49.962,224.882l0,17.648c0,10.667 0.196,10.537 9.02,15.56l30.615,17.746c8.824,5.089 8.824,5.334 18.04,0l-9.02,-22.834l-24.319,-14.077l-0,-28.135l-24.336,14.092Z" style="fill:#0056b3;"/><path d="M146.032,197.513c-1.827,-3.034 -4.893,-4.192 -7.829,-5.921l-30.583,-17.665c-8.807,-5.088 -8.824,-5.317 -18.039,0l-15.3,8.841l48.655,28.022l0,28.152l-24.335,14.043l-24.32,-14.043l0,-28.152l-24.319,14.108l0,17.665c0,10.634 0.18,10.536 9.004,15.625l30.615,17.665c8.824,5.089 8.824,5.333 18.039,-0l30.616,-17.665c8.824,-5.089 9.003,-4.991 9.003,-15.625l0,-35.362c0.016,-3.458 0.587,-6.622 -1.207,-9.688Z" style="fill:#0088fb;fill-opacity:0.3;"/><path d="M74.298,238.925l24.319,-14.043l-0,-28.087l-24.319,14.043l-0,28.087Zm24.319,-14.043l-0,-28.087l24.335,14.043l0,28.087l-24.335,-14.043Z" style="fill:#0064c8;"/></g></g><defs><linearGradient id="_Linear1" x1="0" y1="0" x2="1" y2="0" gradientUnits="userSpaceOnUse" gradientTransform="matrix(5.88657e-15,-96.135,96.135,5.88657e-15,98.6659,266.229)"><stop offset="0" style="stop-color:#0056b3;stop-opacity:1"/><stop offset="0.25" style="stop-color:#0056b3;stop-opacity:1"/><stop offset="0.7" style="stop-color:#0088fb;stop-opacity:1"/><stop offset="1" style="stop-color:#00acff;stop-opacity:1"/></linearGradient></defs></svg>