<?xml version="1.0" encoding="UTF-8" standalone="no"?><!DOCTYPE svg PUBLIC "-//W3C//DTD SVG 1.1//EN" "http://www.w3.org/Graphics/SVG/1.1/DTD/svg11.dtd"><svg width="100%" height="100%" viewBox="0 0 1128 191" version="1.1" xmlns="http://www.w3.org/2000/svg" xmlns:xlink="http://www.w3.org/1999/xlink" xml:space="preserve" xmlns:serif="http://www.serif.com/" style="fill-rule:evenodd;clip-rule:evenodd;stroke-linejoin:round;stroke-miterlimit:2;"><g id="Livello1"><rect x="0" y="0" width="1128" height="191" style="fill:#fff;"/></g><g id="logo"><g id="logo1" serif:id="logo"><path d="M816.911,55.262c-3.544,-0 -6.182,-0.763 -7.913,-2.288c-1.731,-1.525 -2.596,-3.771 -2.596,-6.738c-0,-3.05 0.865,-5.338 2.596,-6.862c1.731,-1.525 4.369,-2.288 7.913,-2.288c3.545,0 6.182,0.763 7.913,2.288c1.731,1.524 2.597,3.812 2.597,6.862c-0,2.967 -0.866,5.213 -2.597,6.738c-1.731,1.525 -4.368,2.288 -7.913,2.288Zm8.408,8.902l-0,61.821l-16.939,0l-0,-61.821l16.939,-0Z" style="fill:#263238;fill-rule:nonzero;"/><path d="M754.224,127.222c-5.11,-0 -9.664,-1.278 -13.662,-3.833c-3.998,-2.556 -7.13,-6.224 -9.397,-11.004c-2.267,-4.781 -3.4,-10.51 -3.4,-17.187c-0,-6.841 1.195,-12.673 3.585,-17.495c2.391,-4.822 5.626,-8.49 9.706,-11.004c4.081,-2.514 8.676,-3.772 13.787,-3.772c5.44,0 9.932,1.567 13.477,4.699c3.544,3.132 5.852,7.171 6.924,12.117l-1.608,1.978l0,-44.635l16.939,0l0,88.899l-15.208,0l-1.113,-18.793l1.979,0.989c-0.495,3.874 -1.772,7.233 -3.833,10.077c-2.061,2.843 -4.657,5.048 -7.79,6.614c-3.132,1.567 -6.594,2.35 -10.386,2.35Zm4.946,-12.983c2.967,0 5.523,-0.762 7.666,-2.287c2.143,-1.525 3.812,-3.771 5.007,-6.739c1.196,-2.967 1.793,-6.512 1.793,-10.633c0,-3.957 -0.577,-7.316 -1.731,-10.077c-1.154,-2.761 -2.802,-4.884 -4.945,-6.367c-2.144,-1.484 -4.658,-2.226 -7.543,-2.226c-4.616,-0 -8.222,1.628 -10.818,4.884c-2.597,3.256 -3.895,8.016 -3.895,14.281c-0,6.264 1.277,11.024 3.833,14.28c2.555,3.256 6.099,4.884 10.633,4.884Z" style="fill:#263238;fill-rule:nonzero;"/><path d="M654.321,125.985l0,-61.821l15.208,-0l0.989,18.546l-2.102,-1.978c0.989,-4.039 2.556,-7.357 4.699,-9.953c2.143,-2.597 4.76,-4.554 7.851,-5.873c3.091,-1.319 6.491,-1.979 10.201,-1.979c4.286,0 8.098,0.825 11.436,2.473c3.339,1.649 5.977,4.142 7.914,7.481c1.937,3.338 2.905,7.521 2.905,12.549l0,40.555l-16.939,0l0,-35.732c0,-5.276 -1.03,-8.923 -3.091,-10.943c-2.061,-2.019 -4.74,-3.029 -8.037,-3.029c-2.308,-0 -4.554,0.556 -6.738,1.669c-2.185,1.113 -3.957,2.906 -5.317,5.379c-1.36,2.472 -2.04,5.77 -2.04,9.891l0,32.765l-16.939,0Z" style="fill:#263238;fill-rule:nonzero;"/><path d="M611.417,127.222c-6.512,-0 -12.179,-1.278 -17.001,-3.833c-4.822,-2.556 -8.552,-6.224 -11.19,-11.004c-2.637,-4.781 -3.956,-10.551 -3.956,-17.31c-0,-6.76 1.319,-12.53 3.956,-17.31c2.638,-4.781 6.327,-8.449 11.066,-11.005c4.74,-2.555 10.16,-3.833 16.259,-3.833c6.265,0 11.582,1.258 15.95,3.772c4.369,2.514 7.707,5.934 10.015,10.262c2.308,4.327 3.462,9.253 3.462,14.775c0,1.649 -0.041,3.215 -0.123,4.699c-0.083,1.483 -0.206,2.802 -0.371,3.956l-49.334,0l0,-11.746l41.915,0l-8.16,2.968c-0,-5.193 -1.175,-9.191 -3.524,-11.994c-2.349,-2.802 -5.667,-4.204 -9.953,-4.204c-3.132,0 -5.832,0.742 -8.099,2.226c-2.267,1.484 -3.977,3.689 -5.131,6.615c-1.154,2.926 -1.731,6.615 -1.731,11.066c0,4.369 0.639,7.975 1.917,10.819c1.277,2.843 3.091,4.966 5.44,6.367c2.349,1.401 5.172,2.102 8.469,2.102c3.627,0 6.553,-0.701 8.779,-2.102c2.226,-1.401 3.957,-3.338 5.193,-5.811l13.477,5.193c-1.319,3.215 -3.318,5.976 -5.997,8.284c-2.679,2.308 -5.852,4.06 -9.52,5.255c-3.668,1.195 -7.604,1.793 -11.808,1.793Z" style="fill:#263238;fill-rule:nonzero;"/><path d="M531.791,125.985l0,-61.821l14.714,-0l1.112,12.117c1.649,-4.286 4.06,-7.584 7.233,-9.892c3.174,-2.308 7.151,-3.462 11.932,-3.462c1.401,0 2.679,0.124 3.833,0.371c1.154,0.248 2.102,0.577 2.844,0.99l-1.979,14.218c-0.824,-0.329 -1.834,-0.577 -3.029,-0.741c-1.195,-0.165 -2.741,-0.248 -4.636,-0.248c-2.473,0 -4.864,0.598 -7.172,1.793c-2.308,1.195 -4.204,3.009 -5.687,5.44c-1.484,2.432 -2.226,5.503 -2.226,9.212l0,32.023l-16.939,0Z" style="fill:#263238;fill-rule:nonzero;"/><path d="M454.267,151.95l0,-87.786l15.208,-0l1.113,19.659l-2.102,-2.225c0.742,-3.627 2.123,-6.842 4.142,-9.645c2.02,-2.802 4.595,-5.007 7.728,-6.614c3.132,-1.608 6.635,-2.412 10.509,-2.412c5.028,0 9.521,1.278 13.477,3.833c3.957,2.556 7.069,6.203 9.335,10.943c2.267,4.739 3.401,10.489 3.401,17.248c-0,6.759 -1.154,12.55 -3.462,17.372c-2.308,4.822 -5.461,8.51 -9.459,11.066c-3.998,2.555 -8.552,3.833 -13.663,3.833c-5.44,-0 -9.953,-1.525 -13.538,-4.575c-3.586,-3.05 -6.038,-6.883 -7.357,-11.499l1.607,-2.596l0,43.398l-16.939,0Zm31.282,-37.711c4.533,0 8.098,-1.628 10.695,-4.884c2.596,-3.256 3.895,-8.016 3.895,-14.28c-0,-6.265 -1.257,-11.025 -3.772,-14.281c-2.514,-3.256 -6.037,-4.884 -10.571,-4.884c-2.885,-0 -5.42,0.762 -7.604,2.287c-2.184,1.525 -3.895,3.71 -5.131,6.553c-1.237,2.844 -1.855,6.286 -1.855,10.325c0,3.874 0.577,7.274 1.731,10.2c1.154,2.926 2.823,5.152 5.008,6.677c2.184,1.525 4.719,2.287 7.604,2.287Z" style="fill:#263238;fill-rule:nonzero;"/><path d="M337.425,125.985l-0,-61.821l15.208,-0l0.618,11.128c2.061,-4.122 4.884,-7.213 8.47,-9.273c3.585,-2.061 7.562,-3.092 11.931,-3.092c4.451,0 8.47,1.031 12.055,3.092c3.586,2.06 6.285,5.11 8.099,9.149c1.319,-2.72 3.091,-4.987 5.316,-6.8c2.226,-1.814 4.699,-3.174 7.419,-4.08c2.72,-0.907 5.481,-1.361 8.284,-1.361c4.039,0 7.728,0.825 11.066,2.473c3.338,1.649 5.997,4.122 7.975,7.419c1.978,3.297 2.967,7.501 2.967,12.611l0,40.555l-16.939,0l0,-37.216c0,-4.534 -0.989,-7.748 -2.967,-9.644c-1.978,-1.896 -4.534,-2.844 -7.666,-2.844c-2.473,-0 -4.76,0.618 -6.862,1.855c-2.102,1.236 -3.751,3.07 -4.946,5.502c-1.195,2.431 -1.793,5.461 -1.793,9.087l0,33.26l-16.939,0l0,-37.216c0,-4.534 -1.009,-7.748 -3.029,-9.644c-2.019,-1.896 -4.595,-2.844 -7.728,-2.844c-2.143,-0 -4.265,0.577 -6.367,1.731c-2.102,1.154 -3.833,2.967 -5.193,5.44c-1.36,2.473 -2.04,5.729 -2.04,9.768l-0,32.765l-16.939,0Z" style="fill:#263238;fill-rule:nonzero;"/><path d="M311.089,55.262c-3.545,-0 -6.182,-0.763 -7.913,-2.288c-1.731,-1.525 -2.597,-3.771 -2.597,-6.738c0,-3.05 0.866,-5.338 2.597,-6.862c1.731,-1.525 4.368,-2.288 7.913,-2.288c3.544,0 6.182,0.763 7.913,2.288c1.731,1.524 2.596,3.812 2.596,6.862c0,2.967 -0.865,5.213 -2.596,6.738c-1.731,1.525 -4.369,2.288 -7.913,2.288Zm8.408,8.902l-0,61.821l-16.94,0l0,-61.821l16.94,-0Z" style="fill:#263238;fill-rule:nonzero;"/></g><g id="soluzioni-as-a-service" serif:id="soluzioni as a service"><path d="M539.935,133.941c1.706,-0 3.176,0.347 4.411,1.043c1.235,0.695 2.264,1.718 3.087,3.069l-1.97,1.527c-0.725,-1.253 -1.544,-2.139 -2.455,-2.658c-0.912,-0.519 -2.014,-0.778 -3.308,-0.778c-1.039,-0 -1.896,0.147 -2.572,0.44c-0.677,0.294 -1.172,0.681 -1.485,1.161c-0.314,0.479 -0.471,1.023 -0.471,1.63c0,0.685 0.216,1.287 0.647,1.806c0.431,0.519 1.294,0.925 2.588,1.219l4.204,0.94c1.862,0.411 3.161,1.033 3.896,1.865c0.735,0.832 1.102,1.865 1.102,3.099c0,1.096 -0.308,2.071 -0.926,2.922c-0.617,0.852 -1.485,1.513 -2.602,1.983c-1.117,0.47 -2.43,0.705 -3.94,0.705c-1.411,-0 -2.651,-0.191 -3.719,-0.573c-1.068,-0.382 -1.985,-0.896 -2.749,-1.542c-0.765,-0.646 -1.392,-1.371 -1.882,-2.173l2.058,-1.675c0.373,0.744 0.853,1.4 1.441,1.968c0.588,0.568 1.298,1.009 2.132,1.322c0.833,0.313 1.788,0.47 2.866,0.47c1,-0 1.867,-0.122 2.602,-0.367c0.735,-0.245 1.299,-0.607 1.691,-1.087c0.392,-0.48 0.588,-1.062 0.588,-1.748c-0,-0.626 -0.206,-1.189 -0.617,-1.688c-0.412,-0.5 -1.186,-0.877 -2.323,-1.131l-4.558,-1.028c-1.195,-0.274 -2.161,-0.651 -2.896,-1.131c-0.735,-0.48 -1.264,-1.048 -1.587,-1.704c-0.324,-0.656 -0.485,-1.366 -0.485,-2.129c-0,-1.038 0.289,-1.993 0.867,-2.864c0.578,-0.871 1.411,-1.571 2.499,-2.1c1.088,-0.529 2.377,-0.793 3.866,-0.793Z" style="fill:#263238;fill-rule:nonzero;"/><path d="M557.4,138.64c1.392,0 2.622,0.304 3.69,0.911c1.068,0.607 1.906,1.483 2.514,2.629c0.608,1.145 0.911,2.511 0.911,4.097c0,1.586 -0.303,2.952 -0.911,4.098c-0.608,1.145 -1.446,2.021 -2.514,2.628c-1.068,0.607 -2.298,0.911 -3.69,0.911c-1.372,-0 -2.597,-0.304 -3.675,-0.911c-1.078,-0.607 -1.921,-1.483 -2.529,-2.628c-0.607,-1.146 -0.911,-2.512 -0.911,-4.098c-0,-1.586 0.304,-2.952 0.911,-4.097c0.608,-1.146 1.451,-2.022 2.529,-2.629c1.078,-0.607 2.303,-0.911 3.675,-0.911Zm0,2.027c-1,0 -1.852,0.225 -2.558,0.676c-0.705,0.45 -1.249,1.091 -1.632,1.924c-0.382,0.832 -0.573,1.835 -0.573,3.01c0,1.155 0.191,2.154 0.573,2.996c0.383,0.842 0.927,1.488 1.632,1.939c0.706,0.45 1.558,0.675 2.558,0.675c1,0 1.852,-0.225 2.558,-0.675c0.706,-0.451 1.25,-1.097 1.632,-1.939c0.382,-0.842 0.573,-1.841 0.573,-2.996c0,-1.175 -0.191,-2.178 -0.573,-3.01c-0.382,-0.833 -0.926,-1.474 -1.632,-1.924c-0.706,-0.451 -1.558,-0.676 -2.558,-0.676Z" style="fill:#263238;fill-rule:nonzero;"/><path d="M570.396,132.179l-0,17.711c-0,0.744 0.137,1.258 0.411,1.542c0.275,0.284 0.716,0.426 1.324,0.426c0.392,-0 0.715,-0.03 0.97,-0.088c0.255,-0.059 0.598,-0.167 1.029,-0.323l-0.382,2.056c-0.314,0.137 -0.657,0.24 -1.029,0.308c-0.373,0.069 -0.755,0.103 -1.147,0.103c-1.196,-0 -2.083,-0.323 -2.661,-0.969c-0.578,-0.647 -0.867,-1.635 -0.867,-2.967l-0,-17.799l2.352,-0Z" style="fill:#263238;fill-rule:nonzero;"/><path d="M581.686,153.914c-0.941,-0 -1.828,-0.176 -2.661,-0.529c-0.833,-0.352 -1.509,-0.925 -2.028,-1.718c-0.52,-0.793 -0.78,-1.826 -0.78,-3.099l0,-9.634l2.353,0l-0,9.017c-0,1.489 0.323,2.512 0.97,3.07c0.647,0.558 1.558,0.837 2.734,0.837c0.549,-0 1.088,-0.093 1.617,-0.279c0.53,-0.186 1.005,-0.48 1.426,-0.881c0.422,-0.402 0.755,-0.916 1,-1.542c0.245,-0.627 0.367,-1.371 0.367,-2.233l0,-7.989l2.353,0l-0,14.686l-2.059,0l-0.147,-2.232c-0.509,0.881 -1.2,1.522 -2.072,1.924c-0.873,0.401 -1.897,0.602 -3.073,0.602Z" style="fill:#263238;fill-rule:nonzero;"/><path d="M592.653,153.62l0,-1.792l7.703,-9.017l1.853,-1.909l-2.617,0.059l-6.851,-0l0,-2.027l12.084,0l0,1.792l-7.703,9.017l-1.823,1.909l2.852,-0.059l6.91,0l-0,2.027l-12.408,0Z" style="fill:#263238;fill-rule:nonzero;"/><path d="M609.794,136.114c-0.529,0 -0.955,-0.161 -1.279,-0.484c-0.323,-0.323 -0.485,-0.749 -0.485,-1.278c0,-0.529 0.162,-0.954 0.485,-1.278c0.324,-0.323 0.75,-0.484 1.279,-0.484c0.53,-0 0.956,0.161 1.279,0.484c0.324,0.324 0.486,0.749 0.486,1.278c-0,0.529 -0.162,0.955 -0.486,1.278c-0.323,0.323 -0.749,0.484 -1.279,0.484Zm1.176,2.82l0,14.686l-2.352,0l0,-14.686l2.352,0Z" style="fill:#263238;fill-rule:nonzero;"/><path d="M621.732,138.64c1.391,0 2.621,0.304 3.69,0.911c1.068,0.607 1.906,1.483 2.513,2.629c0.608,1.145 0.912,2.511 0.912,4.097c-0,1.586 -0.304,2.952 -0.912,4.098c-0.607,1.145 -1.445,2.021 -2.513,2.628c-1.069,0.607 -2.299,0.911 -3.69,0.911c-1.373,-0 -2.598,-0.304 -3.676,-0.911c-1.078,-0.607 -1.921,-1.483 -2.528,-2.628c-0.608,-1.146 -0.912,-2.512 -0.912,-4.098c0,-1.586 0.304,-2.952 0.912,-4.097c0.607,-1.146 1.45,-2.022 2.528,-2.629c1.078,-0.607 2.303,-0.911 3.676,-0.911Zm-0,2.027c-1,0 -1.853,0.225 -2.558,0.676c-0.706,0.45 -1.25,1.091 -1.632,1.924c-0.382,0.832 -0.574,1.835 -0.574,3.01c0,1.155 0.192,2.154 0.574,2.996c0.382,0.842 0.926,1.488 1.632,1.939c0.705,0.45 1.558,0.675 2.558,0.675c0.999,0 1.852,-0.225 2.558,-0.675c0.705,-0.451 1.249,-1.097 1.631,-1.939c0.383,-0.842 0.574,-1.841 0.574,-2.996c-0,-1.175 -0.191,-2.178 -0.574,-3.01c-0.382,-0.833 -0.926,-1.474 -1.631,-1.924c-0.706,-0.451 -1.559,-0.676 -2.558,-0.676Z" style="fill:#263238;fill-rule:nonzero;"/><path d="M632.493,153.62l-0,-14.686l2.058,0l0.206,3.29l-0.383,-0.323c0.314,-0.784 0.735,-1.415 1.265,-1.895c0.529,-0.48 1.141,-0.827 1.837,-1.042c0.696,-0.216 1.416,-0.324 2.161,-0.324c1.059,0 2.019,0.201 2.882,0.603c0.862,0.401 1.553,1.013 2.073,1.835c0.519,0.823 0.779,1.87 0.779,3.143l-0,9.399l-2.352,0l-0,-8.576c-0,-1.626 -0.348,-2.757 -1.044,-3.393c-0.696,-0.636 -1.554,-0.955 -2.573,-0.955c-0.706,0 -1.411,0.167 -2.117,0.5c-0.705,0.333 -1.289,0.871 -1.749,1.615c-0.461,0.744 -0.691,1.743 -0.691,2.996l-0,7.813l-2.352,0Z" style="fill:#263238;fill-rule:nonzero;"/><path d="M651.075,136.114c-0.53,0 -0.956,-0.161 -1.279,-0.484c-0.324,-0.323 -0.485,-0.749 -0.485,-1.278c-0,-0.529 0.161,-0.954 0.485,-1.278c0.323,-0.323 0.749,-0.484 1.279,-0.484c0.529,-0 0.955,0.161 1.279,0.484c0.323,0.324 0.485,0.749 0.485,1.278c-0,0.529 -0.162,0.955 -0.485,1.278c-0.324,0.323 -0.75,0.484 -1.279,0.484Zm1.176,2.82l-0,14.686l-2.352,0l-0,-14.686l2.352,0Z" style="fill:#263238;fill-rule:nonzero;"/><path d="M674.743,144.133c0,-1.097 -0.294,-1.943 -0.882,-2.541c-0.588,-0.597 -1.421,-0.896 -2.499,-0.896c-1.019,0 -1.882,0.221 -2.587,0.661c-0.706,0.441 -1.225,1.151 -1.559,2.13l-1.911,-1.175c0.392,-1.097 1.117,-1.983 2.176,-2.658c1.058,-0.676 2.372,-1.014 3.94,-1.014c1.058,0 2.019,0.182 2.881,0.544c0.863,0.362 1.544,0.91 2.044,1.645c0.499,0.734 0.749,1.679 0.749,2.834l0,7.108c0,0.705 0.373,1.057 1.118,1.057c0.372,0 0.735,-0.049 1.088,-0.146l-0.118,1.85c-0.392,0.196 -0.902,0.294 -1.529,0.294c-0.568,-0 -1.078,-0.108 -1.529,-0.323c-0.451,-0.216 -0.804,-0.544 -1.058,-0.984c-0.255,-0.441 -0.383,-0.994 -0.383,-1.66l0,-0.294l0.588,0.089c-0.235,0.763 -0.637,1.385 -1.205,1.865c-0.568,0.479 -1.205,0.832 -1.911,1.057c-0.706,0.225 -1.402,0.338 -2.088,0.338c-0.862,-0 -1.666,-0.147 -2.411,-0.441c-0.744,-0.293 -1.337,-0.739 -1.778,-1.336c-0.441,-0.597 -0.662,-1.337 -0.662,-2.218c0,-1.096 0.368,-2.002 1.103,-2.717c0.735,-0.714 1.759,-1.199 3.072,-1.454l5.822,-1.145l-0,1.938l-4.734,0.97c-0.96,0.196 -1.676,0.47 -2.146,0.822c-0.471,0.353 -0.706,0.842 -0.706,1.469c-0,0.607 0.24,1.101 0.72,1.483c0.481,0.382 1.162,0.573 2.044,0.573c0.568,-0 1.112,-0.074 1.632,-0.22c0.519,-0.147 0.985,-0.373 1.396,-0.676c0.412,-0.304 0.735,-0.685 0.97,-1.146c0.236,-0.46 0.353,-1.003 0.353,-1.63l0,-4.053Z" style="fill:#263238;fill-rule:nonzero;"/><path d="M687.298,153.914c-1.431,-0 -2.749,-0.304 -3.955,-0.911c-1.205,-0.607 -2.131,-1.468 -2.778,-2.584l1.999,-1.44c0.431,0.901 1.064,1.606 1.897,2.115c0.833,0.509 1.837,0.764 3.013,0.764c1.039,-0 1.853,-0.201 2.441,-0.602c0.588,-0.402 0.882,-0.926 0.882,-1.572c-0,-0.411 -0.133,-0.788 -0.397,-1.131c-0.265,-0.342 -0.77,-0.592 -1.514,-0.749l-3.529,-0.734c-1.431,-0.294 -2.455,-0.783 -3.072,-1.468c-0.618,-0.686 -0.926,-1.538 -0.926,-2.556c-0,-0.803 0.23,-1.537 0.691,-2.203c0.46,-0.665 1.117,-1.199 1.97,-1.6c0.852,-0.402 1.857,-0.603 3.013,-0.603c1.451,0 2.676,0.284 3.675,0.852c1,0.568 1.745,1.371 2.235,2.409l-1.97,1.292c-0.333,-0.861 -0.872,-1.493 -1.617,-1.894c-0.745,-0.402 -1.519,-0.603 -2.323,-0.603c-0.705,0 -1.308,0.098 -1.808,0.294c-0.5,0.196 -0.882,0.465 -1.147,0.808c-0.264,0.343 -0.397,0.729 -0.397,1.16c0,0.431 0.147,0.827 0.441,1.19c0.294,0.362 0.843,0.621 1.647,0.778l3.675,0.764c1.372,0.274 2.333,0.724 2.882,1.351c0.548,0.626 0.823,1.39 0.823,2.291c-0,0.92 -0.245,1.728 -0.735,2.423c-0.49,0.695 -1.176,1.229 -2.058,1.601c-0.882,0.372 -1.902,0.558 -3.058,0.558Z" style="fill:#263238;fill-rule:nonzero;"/><path d="M714.524,144.133c0,-1.097 -0.294,-1.943 -0.882,-2.541c-0.588,-0.597 -1.421,-0.896 -2.499,-0.896c-1.019,0 -1.882,0.221 -2.588,0.661c-0.705,0.441 -1.225,1.151 -1.558,2.13l-1.911,-1.175c0.392,-1.097 1.117,-1.983 2.176,-2.658c1.058,-0.676 2.372,-1.014 3.94,-1.014c1.058,0 2.019,0.182 2.881,0.544c0.862,0.362 1.544,0.91 2.043,1.645c0.5,0.734 0.75,1.679 0.75,2.834l0,7.108c0,0.705 0.373,1.057 1.117,1.057c0.373,0 0.736,-0.049 1.088,-0.146l-0.117,1.85c-0.392,0.196 -0.902,0.294 -1.529,0.294c-0.569,-0 -1.078,-0.108 -1.529,-0.323c-0.451,-0.216 -0.804,-0.544 -1.059,-0.984c-0.254,-0.441 -0.382,-0.994 -0.382,-1.66l0,-0.294l0.588,0.089c-0.235,0.763 -0.637,1.385 -1.205,1.865c-0.569,0.479 -1.206,0.832 -1.911,1.057c-0.706,0.225 -1.402,0.338 -2.088,0.338c-0.862,-0 -1.666,-0.147 -2.411,-0.441c-0.745,-0.293 -1.338,-0.739 -1.779,-1.336c-0.441,-0.597 -0.661,-1.337 -0.661,-2.218c-0,-1.096 0.367,-2.002 1.102,-2.717c0.735,-0.714 1.76,-1.199 3.073,-1.454l5.821,-1.145l0,1.938l-4.733,0.97c-0.961,0.196 -1.676,0.47 -2.147,0.822c-0.47,0.353 -0.705,0.842 -0.705,1.469c-0,0.607 0.24,1.101 0.72,1.483c0.48,0.382 1.162,0.573 2.044,0.573c0.568,-0 1.112,-0.074 1.631,-0.22c0.52,-0.147 0.985,-0.373 1.397,-0.676c0.412,-0.304 0.735,-0.685 0.97,-1.146c0.235,-0.46 0.353,-1.003 0.353,-1.63l0,-4.053Z" style="fill:#263238;fill-rule:nonzero;"/><path d="M737.017,133.941c1.705,-0 3.175,0.347 4.41,1.043c1.235,0.695 2.264,1.718 3.087,3.069l-1.97,1.527c-0.725,-1.253 -1.544,-2.139 -2.455,-2.658c-0.911,-0.519 -2.014,-0.778 -3.308,-0.778c-1.039,-0 -1.896,0.147 -2.572,0.44c-0.677,0.294 -1.172,0.681 -1.485,1.161c-0.314,0.479 -0.471,1.023 -0.471,1.63c0,0.685 0.216,1.287 0.647,1.806c0.431,0.519 1.294,0.925 2.588,1.219l4.204,0.94c1.862,0.411 3.161,1.033 3.896,1.865c0.735,0.832 1.102,1.865 1.102,3.099c0,1.096 -0.308,2.071 -0.926,2.922c-0.617,0.852 -1.485,1.513 -2.602,1.983c-1.117,0.47 -2.43,0.705 -3.94,0.705c-1.411,-0 -2.651,-0.191 -3.719,-0.573c-1.068,-0.382 -1.985,-0.896 -2.749,-1.542c-0.765,-0.646 -1.392,-1.371 -1.882,-2.173l2.058,-1.675c0.373,0.744 0.853,1.4 1.441,1.968c0.588,0.568 1.299,1.009 2.132,1.322c0.833,0.313 1.788,0.47 2.866,0.47c1,-0 1.867,-0.122 2.602,-0.367c0.735,-0.245 1.299,-0.607 1.691,-1.087c0.392,-0.48 0.588,-1.062 0.588,-1.748c0,-0.626 -0.206,-1.189 -0.617,-1.688c-0.412,-0.5 -1.186,-0.877 -2.323,-1.131l-4.557,-1.028c-1.196,-0.274 -2.161,-0.651 -2.897,-1.131c-0.735,-0.48 -1.264,-1.048 -1.587,-1.704c-0.324,-0.656 -0.485,-1.366 -0.485,-2.129c-0,-1.038 0.289,-1.993 0.867,-2.864c0.578,-0.871 1.411,-1.571 2.499,-2.1c1.088,-0.529 2.377,-0.793 3.867,-0.793Z" style="fill:#263238;fill-rule:nonzero;"/><path d="M754.54,153.914c-1.392,-0 -2.631,-0.304 -3.719,-0.911c-1.088,-0.607 -1.936,-1.483 -2.544,-2.628c-0.607,-1.146 -0.911,-2.512 -0.911,-4.098c0,-1.586 0.304,-2.952 0.911,-4.097c0.608,-1.146 1.441,-2.022 2.5,-2.629c1.058,-0.607 2.264,-0.911 3.616,-0.911c1.372,0 2.543,0.294 3.514,0.882c0.97,0.587 1.71,1.385 2.219,2.393c0.51,1.009 0.765,2.14 0.765,3.393c-0,0.333 -0.01,0.636 -0.03,0.91c-0.019,0.275 -0.049,0.519 -0.088,0.735l-11.878,-0l-0,-2.086l10.849,0l-1.205,0.235c-0,-1.41 -0.387,-2.496 -1.162,-3.26c-0.774,-0.764 -1.788,-1.146 -3.043,-1.146c-0.96,0 -1.788,0.221 -2.484,0.661c-0.696,0.441 -1.235,1.077 -1.617,1.91c-0.383,0.832 -0.574,1.835 -0.574,3.01c0,1.155 0.196,2.154 0.588,2.996c0.392,0.842 0.946,1.483 1.662,1.924c0.715,0.441 1.573,0.661 2.572,0.661c1.078,-0 1.955,-0.206 2.632,-0.617c0.676,-0.411 1.22,-0.969 1.632,-1.674l1.852,1.087c-0.373,0.665 -0.848,1.243 -1.426,1.733c-0.578,0.489 -1.255,0.866 -2.029,1.13c-0.774,0.265 -1.641,0.397 -2.602,0.397Z" style="fill:#263238;fill-rule:nonzero;"/><path d="M764.566,153.62l0,-14.686l1.911,0l0.324,2.409c0.411,-0.901 1.014,-1.577 1.808,-2.027c0.794,-0.45 1.759,-0.676 2.896,-0.676c0.255,0 0.534,0.02 0.838,0.059c0.304,0.039 0.563,0.118 0.779,0.235l-0.412,2.144c-0.215,-0.078 -0.45,-0.137 -0.705,-0.176c-0.255,-0.039 -0.618,-0.059 -1.088,-0.059c-0.608,0 -1.22,0.177 -1.838,0.529c-0.617,0.352 -1.132,0.886 -1.543,1.601c-0.412,0.715 -0.618,1.62 -0.618,2.717l0,7.93l-2.352,0Z" style="fill:#263238;fill-rule:nonzero;"/><path d="M785.5,138.934l2.47,0l-6.116,14.686l-2.352,0l-6.115,-14.686l2.675,0l4.646,12.307l4.792,-12.307Z" style="fill:#263238;fill-rule:nonzero;"/><path d="M791.439,136.114c-0.529,0 -0.955,-0.161 -1.278,-0.484c-0.324,-0.323 -0.486,-0.749 -0.486,-1.278c0,-0.529 0.162,-0.954 0.486,-1.278c0.323,-0.323 0.749,-0.484 1.278,-0.484c0.53,-0 0.956,0.161 1.279,0.484c0.324,0.324 0.486,0.749 0.486,1.278c-0,0.529 -0.162,0.955 -0.486,1.278c-0.323,0.323 -0.749,0.484 -1.279,0.484Zm1.177,2.82l-0,14.686l-2.353,0l0,-14.686l2.353,0Z" style="fill:#263238;fill-rule:nonzero;"/><path d="M803.377,138.64c1.019,0 1.916,0.157 2.69,0.47c0.774,0.314 1.446,0.764 2.014,1.351c0.568,0.588 1.029,1.283 1.382,2.086l-2.235,1.057c-0.313,-0.94 -0.789,-1.659 -1.426,-2.159c-0.637,-0.499 -1.465,-0.749 -2.484,-0.749c-0.98,0 -1.823,0.221 -2.529,0.661c-0.705,0.441 -1.244,1.077 -1.617,1.91c-0.372,0.832 -0.558,1.835 -0.558,3.01c-0,1.155 0.186,2.154 0.558,2.996c0.373,0.842 0.912,1.483 1.617,1.924c0.706,0.441 1.549,0.661 2.529,0.661c0.764,-0 1.426,-0.118 1.985,-0.353c0.558,-0.235 1.019,-0.577 1.381,-1.028c0.363,-0.45 0.613,-0.998 0.75,-1.645l2.176,0.764c-0.333,0.901 -0.789,1.674 -1.367,2.321c-0.579,0.646 -1.274,1.14 -2.088,1.483c-0.813,0.343 -1.739,0.514 -2.778,0.514c-1.372,-0 -2.597,-0.304 -3.676,-0.911c-1.078,-0.607 -1.92,-1.483 -2.528,-2.628c-0.608,-1.146 -0.912,-2.512 -0.912,-4.098c0,-1.586 0.304,-2.952 0.912,-4.097c0.608,-1.146 1.45,-2.022 2.528,-2.629c1.079,-0.607 2.304,-0.911 3.676,-0.911Z" style="fill:#263238;fill-rule:nonzero;"/><path d="M819.107,153.914c-1.392,-0 -2.632,-0.304 -3.72,-0.911c-1.088,-0.607 -1.935,-1.483 -2.543,-2.628c-0.608,-1.146 -0.911,-2.512 -0.911,-4.098c-0,-1.586 0.303,-2.952 0.911,-4.097c0.608,-1.146 1.441,-2.022 2.499,-2.629c1.059,-0.607 2.264,-0.911 3.617,-0.911c1.372,0 2.543,0.294 3.513,0.882c0.97,0.587 1.71,1.385 2.22,2.393c0.51,1.009 0.765,2.14 0.765,3.393c-0,0.333 -0.01,0.636 -0.03,0.91c-0.019,0.275 -0.049,0.519 -0.088,0.735l-11.878,-0l-0,-2.086l10.849,0l-1.206,0.235c0,-1.41 -0.387,-2.496 -1.161,-3.26c-0.774,-0.764 -1.789,-1.146 -3.043,-1.146c-0.961,0 -1.789,0.221 -2.485,0.661c-0.695,0.441 -1.234,1.077 -1.617,1.91c-0.382,0.832 -0.573,1.835 -0.573,3.01c-0,1.155 0.196,2.154 0.588,2.996c0.392,0.842 0.946,1.483 1.661,1.924c0.716,0.441 1.573,0.661 2.573,0.661c1.078,-0 1.955,-0.206 2.631,-0.617c0.677,-0.411 1.221,-0.969 1.632,-1.674l1.853,1.087c-0.373,0.665 -0.848,1.243 -1.426,1.733c-0.579,0.489 -1.255,0.866 -2.029,1.13c-0.774,0.265 -1.642,0.397 -2.602,0.397Z" style="fill:#263238;fill-rule:nonzero;"/></g></g></svg>