<?xml version="1.0" encoding="UTF-8" standalone="no"?><!DOCTYPE svg PUBLIC "-//W3C//DTD SVG 1.1//EN" "http://www.w3.org/Graphics/SVG/1.1/DTD/svg11.dtd"><svg width="100%" height="100%" viewBox="0 0 800 266" version="1.1" xmlns="http://www.w3.org/2000/svg" xmlns:xlink="http://www.w3.org/1999/xlink" xml:space="preserve" xmlns:serif="http://www.serif.com/" style="fill-rule:evenodd;clip-rule:evenodd;stroke-linejoin:round;stroke-miterlimit:2;"><rect id="logo" x="0" y="0" width="800" height="265.957" style="fill:none;"/><g><path d="M72.095,82.103c-4.596,-0 -8.016,-0.989 -10.26,-2.966c-2.244,-1.977 -3.366,-4.889 -3.366,-8.736c-0,-3.955 1.122,-6.92 3.366,-8.897c2.244,-1.977 5.664,-2.966 10.26,-2.966c4.595,-0 8.015,0.989 10.259,2.966c2.244,1.977 3.367,4.942 3.367,8.897c-0,3.847 -1.123,6.759 -3.367,8.736c-2.244,1.977 -5.664,2.966 -10.259,2.966Zm10.9,11.542l0,80.153l-21.962,-0l0,-80.153l21.962,-0Z" style="fill:#263238;fill-rule:nonzero;"/><path d="M106.24,173.798l-0,-80.153l19.717,-0l0.802,14.427c2.672,-5.343 6.332,-9.351 10.981,-12.022c4.649,-2.672 9.805,-4.008 15.469,-4.008c5.771,-0 10.981,1.336 15.63,4.008c4.649,2.671 8.149,6.625 10.5,11.862c1.71,-3.527 4.008,-6.466 6.893,-8.817c2.886,-2.351 6.092,-4.114 9.619,-5.29c3.526,-1.175 7.107,-1.763 10.74,-1.763c5.237,-0 10.019,1.069 14.347,3.206c4.329,2.137 7.775,5.344 10.34,9.618c2.565,4.275 3.848,9.726 3.848,16.352l-0,52.58l-21.962,-0l-0,-48.252c-0,-5.878 -1.283,-10.046 -3.848,-12.504c-2.565,-2.458 -5.878,-3.687 -9.939,-3.687c-3.206,-0 -6.171,0.801 -8.897,2.404c-2.725,1.604 -4.862,3.981 -6.412,7.134c-1.549,3.153 -2.324,7.08 -2.324,11.783l-0,43.122l-21.962,-0l-0,-48.252c-0,-5.878 -1.309,-10.046 -3.928,-12.504c-2.618,-2.458 -5.958,-3.687 -10.019,-3.687c-2.778,-0 -5.53,0.748 -8.256,2.244c-2.725,1.496 -4.969,3.848 -6.732,7.054c-1.764,3.206 -2.645,7.427 -2.645,12.664l-0,42.481l-21.962,-0Z" style="fill:#263238;fill-rule:nonzero;"/><path d="M257.729,207.462l-0,-113.817l19.717,-0l1.443,25.489l-2.725,-2.886c0.962,-4.702 2.752,-8.87 5.37,-12.504c2.618,-3.633 5.958,-6.492 10.019,-8.576c4.061,-2.084 8.603,-3.126 13.626,-3.126c6.519,-0 12.344,1.656 17.473,4.969c5.13,3.313 9.165,8.042 12.104,14.187c2.938,6.145 4.408,13.6 4.408,22.363c-0,8.763 -1.496,16.271 -4.489,22.523c-2.992,6.252 -7.08,11.034 -12.263,14.347c-5.183,3.313 -11.088,4.97 -17.714,4.97c-7.053,-0 -12.904,-1.977 -17.553,-5.931c-4.649,-3.955 -7.829,-8.924 -9.538,-14.909l2.084,-3.366l-0,56.267l-21.962,0Zm40.557,-48.893c5.878,-0 10.5,-2.111 13.866,-6.332c3.367,-4.222 5.05,-10.393 5.05,-18.516c0,-8.122 -1.63,-14.294 -4.889,-18.515c-3.26,-4.221 -7.829,-6.332 -13.706,-6.332c-3.741,-0 -7.027,0.989 -9.859,2.966c-2.832,1.977 -5.05,4.809 -6.653,8.496c-1.603,3.687 -2.404,8.149 -2.404,13.385c-0,5.023 0.748,9.432 2.244,13.226c1.496,3.794 3.66,6.679 6.492,8.656c2.832,1.977 6.119,2.966 9.859,2.966Z" style="fill:#263238;fill-rule:nonzero;"/><path d="M358.24,173.798l0,-80.153l19.077,-0l1.442,15.71c2.138,-5.557 5.264,-9.832 9.378,-12.825c4.115,-2.992 9.271,-4.488 15.47,-4.488c1.817,-0 3.473,0.16 4.969,0.481c1.497,0.32 2.726,0.748 3.687,1.282l-2.565,18.435c-1.068,-0.427 -2.377,-0.748 -3.927,-0.961c-1.55,-0.214 -3.553,-0.321 -6.011,-0.321c-3.207,-0 -6.306,0.775 -9.298,2.324c-2.993,1.55 -5.451,3.901 -7.374,7.054c-1.924,3.153 -2.886,7.133 -2.886,11.943l0,41.519l-21.962,-0Z" style="fill:#263238;fill-rule:nonzero;"/><path d="M461.477,175.401c-8.443,-0 -15.79,-1.657 -22.042,-4.97c-6.252,-3.313 -11.088,-8.068 -14.507,-14.267c-3.42,-6.198 -5.13,-13.679 -5.13,-22.443c-0,-8.763 1.71,-16.244 5.13,-22.442c3.419,-6.199 8.202,-10.955 14.347,-14.268c6.145,-3.313 13.172,-4.969 21.08,-4.969c8.122,-0 15.015,1.63 20.68,4.889c5.664,3.26 9.992,7.695 12.984,13.306c2.993,5.61 4.489,11.996 4.489,19.156c-0,2.138 -0.054,4.168 -0.16,6.092c-0.107,1.923 -0.268,3.633 -0.481,5.13l-63.962,-0l-0,-15.23l54.343,0l-10.58,3.848c0,-6.733 -1.523,-11.916 -4.569,-15.55c-3.045,-3.633 -7.347,-5.45 -12.904,-5.45c-4.061,-0 -7.561,0.962 -10.5,2.885c-2.939,1.924 -5.157,4.783 -6.653,8.577c-1.496,3.794 -2.244,8.576 -2.244,14.347c-0,5.664 0.828,10.34 2.485,14.027c1.656,3.687 4.007,6.439 7.053,8.255c3.046,1.817 6.706,2.726 10.981,2.726c4.702,-0 8.496,-0.909 11.382,-2.726c2.885,-1.816 5.129,-4.328 6.732,-7.534l17.474,6.733c-1.71,4.168 -4.302,7.748 -7.775,10.74c-3.473,2.993 -7.588,5.264 -12.344,6.813c-4.755,1.55 -9.858,2.325 -15.309,2.325Z" style="fill:#263238;fill-rule:nonzero;"/><path d="M517.103,173.798l0,-80.153l19.718,-0l1.282,24.046l-2.725,-2.565c1.283,-5.237 3.313,-9.538 6.092,-12.905c2.778,-3.366 6.172,-5.904 10.179,-7.614c4.008,-1.71 8.416,-2.565 13.225,-2.565c5.558,-0 10.5,1.069 14.829,3.206c4.328,2.137 7.748,5.37 10.259,9.698c2.512,4.329 3.768,9.752 3.768,16.272l-0,52.58l-21.962,-0l-0,-46.329c-0,-6.839 -1.336,-11.568 -4.008,-14.187c-2.672,-2.618 -6.145,-3.927 -10.42,-3.927c-2.992,-0 -5.904,0.721 -8.737,2.164c-2.832,1.443 -5.129,3.767 -6.893,6.973c-1.763,3.206 -2.645,7.481 -2.645,12.825l0,42.481l-21.962,-0Z" style="fill:#263238;fill-rule:nonzero;"/><path d="M646.63,175.401c-6.626,-0 -12.53,-1.657 -17.713,-4.97c-5.184,-3.313 -9.245,-8.068 -12.184,-14.267c-2.939,-6.198 -4.408,-13.626 -4.408,-22.282c-0,-8.871 1.55,-16.432 4.649,-22.684c3.099,-6.252 7.294,-11.007 12.584,-14.267c5.29,-3.259 11.248,-4.889 17.874,-4.889c7.053,-0 12.878,2.03 17.473,6.091c4.596,4.062 7.588,9.298 8.977,15.71l-2.084,2.565l0,-57.87l21.962,-0l0,115.26l-19.717,-0l-1.443,-24.367l2.565,1.283c-0.641,5.023 -2.298,9.378 -4.97,13.065c-2.671,3.687 -6.038,6.546 -10.099,8.576c-4.061,2.031 -8.55,3.046 -13.466,3.046Zm6.413,-16.832c3.847,-0 7.16,-0.989 9.939,-2.966c2.778,-1.977 4.942,-4.889 6.492,-8.737c1.55,-3.847 2.324,-8.442 2.324,-13.786c0,-5.13 -0.748,-9.485 -2.244,-13.065c-1.496,-3.58 -3.633,-6.332 -6.412,-8.256c-2.779,-1.923 -6.038,-2.885 -9.779,-2.885c-5.985,-0 -10.66,2.111 -14.027,6.332c-3.366,4.221 -5.049,10.393 -5.049,18.515c-0,8.123 1.656,14.294 4.969,18.516c3.313,4.221 7.909,6.332 13.787,6.332Z" style="fill:#263238;fill-rule:nonzero;"/><path d="M727.905,82.103c-4.595,-0 -8.015,-0.989 -10.259,-2.966c-2.244,-1.977 -3.367,-4.889 -3.367,-8.736c0,-3.955 1.123,-6.92 3.367,-8.897c2.244,-1.977 5.664,-2.966 10.259,-2.966c4.596,-0 8.016,0.989 10.26,2.966c2.244,1.977 3.366,4.942 3.366,8.897c0,3.847 -1.122,6.759 -3.366,8.736c-2.244,1.977 -5.664,2.966 -10.26,2.966Zm10.901,11.542l0,80.153l-21.962,-0l0,-80.153l21.962,-0Z" style="fill:#263238;fill-rule:nonzero;"/></g></svg>