<?xml version="1.0" encoding="UTF-8" standalone="no"?><!DOCTYPE svg PUBLIC "-//W3C//DTD SVG 1.1//EN" "http://www.w3.org/Graphics/SVG/1.1/DTD/svg11.dtd"><svg width="100%" height="100%" viewBox="0 0 800 266" version="1.1" xmlns="http://www.w3.org/2000/svg" xmlns:xlink="http://www.w3.org/1999/xlink" xml:space="preserve" xmlns:serif="http://www.serif.com/" style="fill-rule:evenodd;clip-rule:evenodd;stroke-linejoin:round;stroke-miterlimit:2;"><g id="logo"><g id="logo1" serif:id="logo"><path d="M727.887,81.882c-4.595,0 -8.015,-0.988 -10.259,-2.965c-2.244,-1.977 -3.366,-4.889 -3.366,-8.737c-0,-3.954 1.122,-6.919 3.366,-8.896c2.244,-1.977 5.664,-2.965 10.259,-2.965c4.595,-0 8.015,0.988 10.259,2.965c2.244,1.977 3.366,4.942 3.366,8.896c0,3.848 -1.122,6.76 -3.366,8.737c-2.244,1.977 -5.664,2.965 -10.259,2.965Zm10.9,11.542l0,80.148l-21.961,-0l0,-80.148l21.961,-0Z" style="fill:#263238;fill-rule:nonzero;"/><path d="M646.616,175.175c-6.625,-0 -12.529,-1.657 -17.712,-4.969c-5.183,-3.313 -9.244,-8.069 -12.183,-14.267c-2.939,-6.198 -4.408,-13.625 -4.408,-22.281c-0,-8.87 1.549,-16.43 4.649,-22.682c3.099,-6.252 7.293,-11.007 12.583,-14.266c5.29,-3.26 11.247,-4.889 17.873,-4.889c7.053,-0 12.877,2.03 17.472,6.091c4.595,4.061 7.588,9.297 8.977,15.709l-2.084,2.565l0,-57.867l21.961,-0l-0,115.253l-19.717,-0l-1.442,-24.365l2.564,1.282c-0.641,5.023 -2.297,9.377 -4.969,13.064c-2.672,3.687 -6.038,6.546 -10.099,8.576c-4.06,2.031 -8.549,3.046 -13.465,3.046Zm6.412,-16.831c3.847,-0 7.16,-0.989 9.939,-2.966c2.778,-1.977 4.942,-4.889 6.492,-8.736c1.549,-3.847 2.324,-8.442 2.324,-13.786c0,-5.129 -0.748,-9.484 -2.244,-13.064c-1.496,-3.58 -3.634,-6.331 -6.412,-8.255c-2.778,-1.924 -6.038,-2.885 -9.778,-2.885c-5.984,-0 -10.66,2.11 -14.026,6.331c-3.366,4.222 -5.049,10.393 -5.049,18.515c-0,8.121 1.656,14.293 4.969,18.514c3.313,4.221 7.908,6.332 13.785,6.332Z" style="fill:#263238;fill-rule:nonzero;"/><path d="M517.097,173.572l-0,-80.148l19.716,-0l1.283,24.044l-2.725,-2.565c1.282,-5.236 3.312,-9.537 6.091,-12.904c2.778,-3.366 6.171,-5.904 10.179,-7.614c4.007,-1.71 8.415,-2.564 13.224,-2.564c5.557,-0 10.5,1.068 14.828,3.205c4.328,2.138 7.747,5.37 10.259,9.698c2.511,4.328 3.767,9.752 3.767,16.271l-0,52.577l-21.961,-0l-0,-46.326c-0,-6.839 -1.336,-11.568 -4.008,-14.186c-2.671,-2.618 -6.144,-3.927 -10.419,-3.927c-2.992,-0 -5.904,0.721 -8.736,2.164c-2.832,1.442 -5.129,3.767 -6.893,6.972c-1.763,3.206 -2.645,7.481 -2.645,12.824l0,42.479l-21.96,-0Z" style="fill:#263238;fill-rule:nonzero;"/><path d="M461.474,175.175c-8.443,-0 -15.789,-1.657 -22.041,-4.969c-6.252,-3.313 -11.087,-8.069 -14.507,-14.267c-3.42,-6.198 -5.129,-13.678 -5.129,-22.441c-0,-8.763 1.709,-16.244 5.129,-22.442c3.42,-6.198 8.202,-10.953 14.347,-14.266c6.144,-3.313 13.171,-4.969 21.079,-4.969c8.121,-0 15.014,1.629 20.678,4.889c5.664,3.259 9.992,7.694 12.984,13.304c2.992,5.611 4.488,11.996 4.488,19.156c0,2.137 -0.053,4.167 -0.16,6.091c-0.107,1.924 -0.267,3.633 -0.481,5.129l-63.958,0l-0,-15.228l54.34,0l-10.579,3.847c-0,-6.732 -1.523,-11.915 -4.569,-15.548c-3.045,-3.634 -7.347,-5.45 -12.904,-5.45c-4.06,-0 -7.56,0.961 -10.499,2.885c-2.939,1.923 -5.156,4.782 -6.652,8.576c-1.496,3.793 -2.244,8.576 -2.244,14.346c-0,5.664 0.828,10.339 2.484,14.026c1.657,3.687 4.008,6.439 7.053,8.256c3.046,1.816 6.706,2.725 10.98,2.725c4.703,-0 8.496,-0.909 11.382,-2.725c2.885,-1.817 5.129,-4.329 6.732,-7.534l17.472,6.732c-1.709,4.168 -4.301,7.748 -7.774,10.74c-3.473,2.992 -7.587,5.263 -12.343,6.813c-4.755,1.549 -9.858,2.324 -15.308,2.324Z" style="fill:#263238;fill-rule:nonzero;"/><path d="M358.243,173.572l-0,-80.148l19.075,-0l1.443,15.709c2.137,-5.557 5.263,-9.832 9.377,-12.824c4.114,-2.992 9.271,-4.488 15.469,-4.488c1.816,-0 3.473,0.16 4.969,0.48c1.496,0.321 2.725,0.748 3.687,1.283l-2.565,18.434c-1.069,-0.428 -2.378,-0.748 -3.927,-0.962c-1.55,-0.214 -3.554,-0.32 -6.011,-0.32c-3.206,-0 -6.305,0.774 -9.298,2.324c-2.992,1.549 -5.45,3.9 -7.373,7.053c-1.924,3.152 -2.886,7.133 -2.886,11.942l0,41.517l-21.96,-0Z" style="fill:#263238;fill-rule:nonzero;"/><path d="M257.737,207.234l-0,-113.81l19.716,-0l1.443,25.487l-2.725,-2.886c0.962,-4.702 2.752,-8.869 5.37,-12.503c2.618,-3.633 5.957,-6.492 10.018,-8.576c4.061,-2.084 8.603,-3.125 13.626,-3.125c6.518,-0 12.342,1.656 17.472,4.969c5.129,3.313 9.163,8.041 12.102,14.186c2.939,6.145 4.408,13.598 4.408,22.361c0,8.763 -1.496,16.27 -4.488,22.522c-2.992,6.252 -7.08,11.034 -12.263,14.347c-5.183,3.312 -11.087,4.969 -17.712,4.969c-7.053,-0 -12.904,-1.977 -17.553,-5.931c-4.648,-3.954 -7.828,-8.923 -9.538,-14.908l2.084,-3.366l0,56.264l-21.96,0Zm40.555,-48.89c5.877,-0 10.499,-2.111 13.865,-6.332c3.367,-4.221 5.05,-10.393 5.05,-18.514c-0,-8.122 -1.63,-14.293 -4.889,-18.515c-3.26,-4.221 -7.828,-6.331 -13.706,-6.331c-3.74,-0 -7.026,0.988 -9.858,2.965c-2.832,1.977 -5.049,4.809 -6.652,8.496c-1.603,3.687 -2.405,8.148 -2.405,13.385c0,5.022 0.748,9.43 2.244,13.224c1.497,3.794 3.661,6.679 6.493,8.656c2.831,1.977 6.117,2.966 9.858,2.966Z" style="fill:#263238;fill-rule:nonzero;"/><path d="M106.256,173.572l0,-80.148l19.717,-0l0.801,14.426c2.672,-5.343 6.332,-9.35 10.981,-12.022c4.648,-2.672 9.804,-4.007 15.468,-4.007c5.771,-0 10.981,1.335 15.629,4.007c4.649,2.672 8.149,6.626 10.5,11.862c1.709,-3.527 4.007,-6.465 6.892,-8.816c2.886,-2.351 6.092,-4.115 9.618,-5.29c3.527,-1.176 7.107,-1.763 10.74,-1.763c5.236,-0 10.019,1.068 14.347,3.205c4.328,2.138 7.774,5.344 10.339,9.618c2.564,4.275 3.847,9.725 3.847,16.351l-0,52.577l-21.961,-0l0,-48.249c0,-5.878 -1.282,-10.046 -3.847,-12.504c-2.565,-2.457 -5.877,-3.686 -9.938,-3.686c-3.206,-0 -6.172,0.801 -8.897,2.404c-2.725,1.603 -4.862,3.981 -6.412,7.133c-1.549,3.153 -2.324,7.08 -2.324,11.782l0,43.12l-21.961,-0l0,-48.249c0,-5.878 -1.309,-10.046 -3.927,-12.504c-2.618,-2.457 -5.958,-3.686 -10.018,-3.686c-2.779,-0 -5.531,0.748 -8.256,2.244c-2.725,1.496 -4.969,3.847 -6.732,7.053c-1.763,3.206 -2.645,7.427 -2.645,12.663l-0,42.479l-21.961,-0Z" style="fill:#263238;fill-rule:nonzero;"/><path d="M72.113,81.882c-4.595,0 -8.015,-0.988 -10.259,-2.965c-2.244,-1.977 -3.366,-4.889 -3.366,-8.737c-0,-3.954 1.122,-6.919 3.366,-8.896c2.244,-1.977 5.664,-2.965 10.259,-2.965c4.595,-0 8.015,0.988 10.259,2.965c2.244,1.977 3.366,4.942 3.366,8.896c0,3.848 -1.122,6.76 -3.366,8.737c-2.244,1.977 -5.664,2.965 -10.259,2.965Zm10.9,11.542l0,80.148l-21.96,-0l-0,-80.148l21.96,-0Z" style="fill:#263238;fill-rule:nonzero;"/></g><g id="soluzioni-as-a-service" serif:id="soluzioni as a service"><path d="M367.547,185.357c1.948,0 3.628,0.395 5.039,1.184c1.411,0.788 2.586,1.95 3.527,3.483l-2.251,1.733c-0.828,-1.422 -1.763,-2.428 -2.805,-3.016c-1.041,-0.589 -2.3,-0.884 -3.778,-0.884c-1.187,0 -2.167,0.167 -2.94,0.5c-0.772,0.334 -1.338,0.772 -1.696,1.317c-0.358,0.544 -0.537,1.161 -0.537,1.85c-0,0.778 0.246,1.461 0.739,2.05c0.492,0.589 1.478,1.05 2.956,1.383l4.803,1.067c2.127,0.467 3.611,1.172 4.451,2.117c0.839,0.944 1.259,2.116 1.259,3.516c0,1.245 -0.352,2.35 -1.058,3.317c-0.705,0.967 -1.696,1.717 -2.972,2.25c-1.277,0.533 -2.777,0.8 -4.502,0.8c-1.612,-0 -3.028,-0.217 -4.249,-0.65c-1.22,-0.433 -2.267,-1.017 -3.141,-1.75c-0.873,-0.733 -1.589,-1.556 -2.149,-2.467l2.351,-1.9c0.426,0.845 0.974,1.589 1.646,2.234c0.672,0.644 1.484,1.144 2.435,1.5c0.952,0.355 2.044,0.533 3.275,0.533c1.142,-0 2.133,-0.139 2.973,-0.417c0.84,-0.278 1.484,-0.689 1.932,-1.233c0.447,-0.545 0.671,-1.206 0.671,-1.983c0,-0.712 -0.235,-1.35 -0.705,-1.917c-0.47,-0.567 -1.355,-0.995 -2.654,-1.283l-5.206,-1.167c-1.366,-0.311 -2.469,-0.739 -3.309,-1.283c-0.84,-0.545 -1.444,-1.189 -1.814,-1.934c-0.369,-0.744 -0.554,-1.55 -0.554,-2.416c0,-1.178 0.33,-2.262 0.991,-3.25c0.661,-0.989 1.612,-1.784 2.855,-2.384c1.243,-0.6 2.715,-0.9 4.417,-0.9Z" style="fill:#263238;fill-rule:nonzero;"/><path d="M387.5,190.691c1.59,-0 2.995,0.344 4.216,1.033c1.22,0.689 2.177,1.683 2.872,2.983c0.694,1.3 1.041,2.85 1.041,4.65c-0,1.8 -0.347,3.35 -1.041,4.65c-0.695,1.3 -1.652,2.295 -2.872,2.984c-1.221,0.688 -2.626,1.033 -4.216,1.033c-1.568,-0 -2.967,-0.345 -4.199,-1.033c-1.231,-0.689 -2.194,-1.684 -2.889,-2.984c-0.694,-1.3 -1.041,-2.85 -1.041,-4.65c0,-1.8 0.347,-3.35 1.041,-4.65c0.695,-1.3 1.658,-2.294 2.889,-2.983c1.232,-0.689 2.631,-1.033 4.199,-1.033Zm-0,2.3c-1.142,-0 -2.116,0.255 -2.922,0.766c-0.807,0.511 -1.428,1.239 -1.865,2.184c-0.436,0.944 -0.655,2.083 -0.655,3.416c0,1.311 0.219,2.445 0.655,3.4c0.437,0.956 1.058,1.689 1.865,2.2c0.806,0.511 1.78,0.767 2.922,0.767c1.142,-0 2.116,-0.256 2.922,-0.767c0.806,-0.511 1.428,-1.244 1.865,-2.2c0.436,-0.955 0.655,-2.089 0.655,-3.4c-0,-1.333 -0.219,-2.472 -0.655,-3.416c-0.437,-0.945 -1.059,-1.673 -1.865,-2.184c-0.806,-0.511 -1.78,-0.766 -2.922,-0.766Z" style="fill:#263238;fill-rule:nonzero;"/><path d="M402.347,183.357l-0,20.1c-0,0.845 0.157,1.428 0.47,1.75c0.314,0.322 0.818,0.484 1.512,0.484c0.448,-0 0.817,-0.034 1.108,-0.1c0.291,-0.067 0.683,-0.189 1.176,-0.367l-0.437,2.333c-0.358,0.156 -0.75,0.272 -1.175,0.35c-0.426,0.078 -0.863,0.117 -1.31,0.117c-1.366,-0 -2.38,-0.367 -3.04,-1.1c-0.661,-0.733 -0.991,-1.856 -0.991,-3.367l-0,-20.2l2.687,0Z" style="fill:#263238;fill-rule:nonzero;"/><path d="M415.246,208.024c-1.075,-0 -2.089,-0.2 -3.04,-0.6c-0.952,-0.4 -1.725,-1.05 -2.318,-1.95c-0.593,-0.9 -0.89,-2.072 -0.89,-3.517l-0,-10.933l2.687,-0l0,10.233c0,1.689 0.37,2.85 1.109,3.484c0.739,0.633 1.78,0.95 3.123,0.95c0.627,-0 1.243,-0.106 1.848,-0.317c0.605,-0.211 1.148,-0.545 1.629,-1c0.482,-0.456 0.862,-1.039 1.142,-1.75c0.28,-0.711 0.42,-1.556 0.42,-2.533l-0,-9.067l2.687,-0l0,16.667l-2.351,-0l-0.168,-2.534c-0.582,1 -1.372,1.728 -2.368,2.184c-0.997,0.455 -2.167,0.683 -3.51,0.683Z" style="fill:#263238;fill-rule:nonzero;"/><path d="M427.775,207.691l-0,-2.034l8.801,-10.233l2.116,-2.167l-2.99,0.067l-7.826,-0l-0,-2.3l13.805,-0l0,2.033l-8.8,10.234l-2.083,2.166l3.258,-0.066l7.894,-0l0,2.3l-14.175,-0Z" style="fill:#263238;fill-rule:nonzero;"/><path d="M447.358,187.824c-0.605,-0 -1.092,-0.183 -1.461,-0.55c-0.37,-0.367 -0.554,-0.85 -0.554,-1.45c-0,-0.6 0.184,-1.083 0.554,-1.45c0.369,-0.367 0.856,-0.55 1.461,-0.55c0.605,-0 1.092,0.183 1.461,0.55c0.37,0.367 0.554,0.85 0.554,1.45c0,0.6 -0.184,1.083 -0.554,1.45c-0.369,0.367 -0.856,0.55 -1.461,0.55Zm1.344,3.2l-0,16.667l-2.688,-0l0,-16.667l2.688,-0Z" style="fill:#263238;fill-rule:nonzero;"/><path d="M460.996,190.691c1.59,-0 2.995,0.344 4.215,1.033c1.221,0.689 2.178,1.683 2.872,2.983c0.695,1.3 1.042,2.85 1.042,4.65c-0,1.8 -0.347,3.35 -1.042,4.65c-0.694,1.3 -1.651,2.295 -2.872,2.984c-1.22,0.688 -2.625,1.033 -4.215,1.033c-1.568,-0 -2.967,-0.345 -4.199,-1.033c-1.232,-0.689 -2.195,-1.684 -2.889,-2.984c-0.694,-1.3 -1.041,-2.85 -1.041,-4.65c-0,-1.8 0.347,-3.35 1.041,-4.65c0.694,-1.3 1.657,-2.294 2.889,-2.983c1.232,-0.689 2.631,-1.033 4.199,-1.033Zm-0,2.3c-1.142,-0 -2.116,0.255 -2.923,0.766c-0.806,0.511 -1.427,1.239 -1.864,2.184c-0.437,0.944 -0.655,2.083 -0.655,3.416c0,1.311 0.218,2.445 0.655,3.4c0.437,0.956 1.058,1.689 1.864,2.2c0.807,0.511 1.781,0.767 2.923,0.767c1.142,-0 2.116,-0.256 2.922,-0.767c0.806,-0.511 1.428,-1.244 1.864,-2.2c0.437,-0.955 0.655,-2.089 0.655,-3.4c0,-1.333 -0.218,-2.472 -0.655,-3.416c-0.436,-0.945 -1.058,-1.673 -1.864,-2.184c-0.806,-0.511 -1.78,-0.766 -2.922,-0.766Z" style="fill:#263238;fill-rule:nonzero;"/><path d="M473.29,207.691l-0,-16.667l2.351,-0l0.235,3.733l-0.436,-0.366c0.358,-0.889 0.839,-1.606 1.444,-2.15c0.605,-0.545 1.304,-0.939 2.099,-1.184c0.795,-0.244 1.618,-0.366 2.469,-0.366c1.21,-0 2.307,0.227 3.292,0.683c0.985,0.455 1.775,1.15 2.368,2.083c0.594,0.934 0.89,2.122 0.89,3.567l0,10.667l-2.687,-0l0,-9.734c0,-1.844 -0.397,-3.128 -1.192,-3.85c-0.795,-0.722 -1.775,-1.083 -2.939,-1.083c-0.807,-0 -1.613,0.189 -2.419,0.567c-0.806,0.377 -1.472,0.988 -1.999,1.833c-0.526,0.844 -0.789,1.978 -0.789,3.4l0,8.867l-2.687,-0Z" style="fill:#263238;fill-rule:nonzero;"/><path d="M494.519,187.824c-0.605,-0 -1.092,-0.183 -1.461,-0.55c-0.37,-0.367 -0.554,-0.85 -0.554,-1.45c-0,-0.6 0.184,-1.083 0.554,-1.45c0.369,-0.367 0.856,-0.55 1.461,-0.55c0.605,-0 1.092,0.183 1.461,0.55c0.37,0.367 0.554,0.85 0.554,1.45c0,0.6 -0.184,1.083 -0.554,1.45c-0.369,0.367 -0.856,0.55 -1.461,0.55Zm1.344,3.2l-0,16.667l-2.688,-0l0,-16.667l2.688,-0Z" style="fill:#263238;fill-rule:nonzero;"/><path d="M521.559,196.924c0,-1.245 -0.336,-2.206 -1.007,-2.883c-0.672,-0.678 -1.624,-1.017 -2.856,-1.017c-1.164,-0 -2.149,0.25 -2.956,0.75c-0.806,0.5 -1.399,1.305 -1.78,2.417l-2.183,-1.334c0.448,-1.244 1.276,-2.25 2.485,-3.016c1.21,-0.767 2.71,-1.15 4.502,-1.15c1.209,-0 2.306,0.205 3.291,0.616c0.986,0.411 1.764,1.034 2.335,1.867c0.571,0.833 0.856,1.905 0.856,3.217l0,8.066c0,0.8 0.426,1.2 1.277,1.2c0.425,0 0.84,-0.055 1.243,-0.166l-0.135,2.1c-0.447,0.222 -1.03,0.333 -1.746,0.333c-0.65,-0 -1.232,-0.122 -1.747,-0.367c-0.515,-0.244 -0.918,-0.616 -1.209,-1.116c-0.291,-0.5 -0.437,-1.128 -0.437,-1.884l0,-0.333l0.672,0.1c-0.269,0.867 -0.728,1.572 -1.377,2.117c-0.65,0.544 -1.378,0.944 -2.184,1.2c-0.806,0.255 -1.601,0.383 -2.385,0.383c-0.985,-0 -1.903,-0.167 -2.754,-0.5c-0.851,-0.333 -1.528,-0.839 -2.032,-1.517c-0.504,-0.678 -0.756,-1.516 -0.756,-2.516c-0,-1.245 0.42,-2.273 1.26,-3.084c0.839,-0.811 2.009,-1.361 3.51,-1.65l6.651,-1.3l-0,2.2l-5.408,1.1c-1.098,0.222 -1.915,0.534 -2.452,0.934c-0.538,0.4 -0.807,0.955 -0.807,1.666c0,0.689 0.275,1.25 0.823,1.684c0.549,0.433 1.327,0.65 2.335,0.65c0.649,-0 1.271,-0.084 1.864,-0.25c0.594,-0.167 1.125,-0.423 1.596,-0.767c0.47,-0.345 0.839,-0.778 1.108,-1.3c0.269,-0.522 0.403,-1.139 0.403,-1.85l0,-4.6Z" style="fill:#263238;fill-rule:nonzero;"/><path d="M535.902,208.024c-1.634,-0 -3.14,-0.345 -4.518,-1.033c-1.377,-0.689 -2.435,-1.667 -3.174,-2.934l2.284,-1.633c0.493,1.022 1.215,1.822 2.167,2.4c0.952,0.578 2.099,0.867 3.443,0.867c1.187,-0 2.116,-0.228 2.788,-0.684c0.672,-0.455 1.008,-1.05 1.008,-1.783c-0,-0.467 -0.152,-0.895 -0.454,-1.283c-0.302,-0.389 -0.879,-0.673 -1.73,-0.85l-4.031,-0.834c-1.634,-0.333 -2.804,-0.889 -3.51,-1.666c-0.705,-0.778 -1.058,-1.745 -1.058,-2.9c0,-0.912 0.263,-1.745 0.789,-2.5c0.527,-0.756 1.277,-1.362 2.251,-1.817c0.974,-0.456 2.122,-0.683 3.443,-0.683c1.657,-0 3.057,0.322 4.199,0.966c1.142,0.645 1.993,1.556 2.553,2.734l-2.251,1.466c-0.381,-0.978 -0.996,-1.694 -1.847,-2.15c-0.851,-0.455 -1.736,-0.683 -2.654,-0.683c-0.806,-0 -1.495,0.111 -2.066,0.333c-0.571,0.222 -1.007,0.528 -1.31,0.917c-0.302,0.389 -0.453,0.828 -0.453,1.317c-0,0.488 0.168,0.938 0.504,1.35c0.336,0.411 0.963,0.705 1.881,0.883l4.198,0.867c1.568,0.311 2.665,0.822 3.292,1.533c0.627,0.711 0.941,1.578 0.941,2.6c-0,1.044 -0.28,1.961 -0.84,2.75c-0.56,0.789 -1.344,1.394 -2.351,1.817c-1.008,0.422 -2.172,0.633 -3.494,0.633Z" style="fill:#263238;fill-rule:nonzero;"/><path d="M567.007,196.924c0,-1.245 -0.336,-2.206 -1.008,-2.883c-0.671,-0.678 -1.623,-1.017 -2.855,-1.017c-1.164,-0 -2.15,0.25 -2.956,0.75c-0.806,0.5 -1.399,1.305 -1.78,2.417l-2.183,-1.334c0.447,-1.244 1.276,-2.25 2.485,-3.016c1.21,-0.767 2.71,-1.15 4.501,-1.15c1.21,-0 2.307,0.205 3.292,0.616c0.986,0.411 1.764,1.034 2.335,1.867c0.571,0.833 0.856,1.905 0.856,3.217l0,8.066c0,0.8 0.426,1.2 1.277,1.2c0.425,0 0.84,-0.055 1.243,-0.166l-0.135,2.1c-0.448,0.222 -1.03,0.333 -1.746,0.333c-0.65,-0 -1.232,-0.122 -1.747,-0.367c-0.515,-0.244 -0.918,-0.616 -1.209,-1.116c-0.292,-0.5 -0.437,-1.128 -0.437,-1.884l-0,-0.333l0.672,0.1c-0.269,0.867 -0.728,1.572 -1.377,2.117c-0.65,0.544 -1.378,0.944 -2.184,1.2c-0.806,0.255 -1.601,0.383 -2.385,0.383c-0.985,-0 -1.903,-0.167 -2.754,-0.5c-0.851,-0.333 -1.529,-0.839 -2.032,-1.517c-0.504,-0.678 -0.756,-1.516 -0.756,-2.516c-0,-1.245 0.42,-2.273 1.259,-3.084c0.84,-0.811 2.01,-1.361 3.511,-1.65l6.651,-1.3l-0,2.2l-5.409,1.1c-1.097,0.222 -1.914,0.534 -2.452,0.934c-0.537,0.4 -0.806,0.955 -0.806,1.666c0,0.689 0.275,1.25 0.823,1.684c0.549,0.433 1.327,0.65 2.335,0.65c0.649,-0 1.271,-0.084 1.864,-0.25c0.593,-0.167 1.125,-0.423 1.596,-0.767c0.47,-0.345 0.839,-0.778 1.108,-1.3c0.269,-0.522 0.403,-1.139 0.403,-1.85l0,-4.6Z" style="fill:#263238;fill-rule:nonzero;"/><path d="M592.704,185.357c1.948,0 3.628,0.395 5.038,1.184c1.411,0.788 2.587,1.95 3.527,3.483l-2.25,1.733c-0.829,-1.422 -1.764,-2.428 -2.805,-3.016c-1.041,-0.589 -2.301,-0.884 -3.779,-0.884c-1.187,0 -2.167,0.167 -2.939,0.5c-0.773,0.334 -1.338,0.772 -1.696,1.317c-0.359,0.544 -0.538,1.161 -0.538,1.85c0,0.778 0.246,1.461 0.739,2.05c0.493,0.589 1.478,1.05 2.956,1.383l4.803,1.067c2.128,0.467 3.611,1.172 4.451,2.117c0.84,0.944 1.26,2.116 1.26,3.516c-0,1.245 -0.353,2.35 -1.058,3.317c-0.706,0.967 -1.697,1.717 -2.973,2.25c-1.276,0.533 -2.777,0.8 -4.501,0.8c-1.612,-0 -3.029,-0.217 -4.249,-0.65c-1.221,-0.433 -2.268,-1.017 -3.141,-1.75c-0.873,-0.733 -1.59,-1.556 -2.15,-2.467l2.352,-1.9c0.425,0.845 0.974,1.589 1.645,2.234c0.672,0.644 1.484,1.144 2.436,1.5c0.951,0.355 2.043,0.533 3.275,0.533c1.142,-0 2.133,-0.139 2.973,-0.417c0.839,-0.278 1.483,-0.689 1.931,-1.233c0.448,-0.545 0.672,-1.206 0.672,-1.983c-0,-0.712 -0.235,-1.35 -0.706,-1.917c-0.47,-0.567 -1.354,-0.995 -2.653,-1.283l-5.207,-1.167c-1.366,-0.311 -2.469,-0.739 -3.308,-1.283c-0.84,-0.545 -1.445,-1.189 -1.814,-1.934c-0.37,-0.744 -0.554,-1.55 -0.554,-2.416c-0,-1.178 0.33,-2.262 0.99,-3.25c0.661,-0.989 1.613,-1.784 2.856,-2.384c1.242,-0.6 2.715,-0.9 4.417,-0.9Z" style="fill:#263238;fill-rule:nonzero;"/><path d="M612.724,208.024c-1.59,-0 -3.007,-0.345 -4.25,-1.033c-1.242,-0.689 -2.211,-1.684 -2.905,-2.984c-0.694,-1.3 -1.041,-2.85 -1.041,-4.65c-0,-1.8 0.347,-3.35 1.041,-4.65c0.694,-1.3 1.646,-2.294 2.855,-2.983c1.209,-0.689 2.587,-1.033 4.132,-1.033c1.567,-0 2.905,0.333 4.014,1c1.108,0.666 1.954,1.572 2.536,2.716c0.582,1.145 0.873,2.428 0.873,3.85c0,0.378 -0.011,0.722 -0.033,1.034c-0.023,0.311 -0.056,0.588 -0.101,0.833l-13.571,-0l0,-2.367l12.395,0l-1.377,0.267c-0,-1.6 -0.442,-2.833 -1.327,-3.7c-0.884,-0.867 -2.043,-1.3 -3.477,-1.3c-1.097,-0 -2.043,0.25 -2.838,0.75c-0.795,0.5 -1.411,1.222 -1.847,2.167c-0.437,0.944 -0.655,2.083 -0.655,3.416c-0,1.311 0.224,2.445 0.671,3.4c0.448,0.956 1.081,1.684 1.898,2.184c0.818,0.5 1.797,0.75 2.939,0.75c1.232,-0 2.234,-0.234 3.007,-0.7c0.772,-0.467 1.394,-1.1 1.864,-1.9l2.116,1.233c-0.425,0.755 -0.968,1.411 -1.629,1.967c-0.66,0.555 -1.433,0.983 -2.318,1.283c-0.884,0.3 -1.875,0.45 -2.972,0.45Z" style="fill:#263238;fill-rule:nonzero;"/><path d="M624.178,207.691l-0,-16.667l2.183,-0l0.37,2.733c0.47,-1.022 1.159,-1.789 2.066,-2.3c0.907,-0.511 2.009,-0.766 3.308,-0.766c0.291,-0 0.611,0.022 0.958,0.066c0.347,0.045 0.643,0.134 0.89,0.267l-0.471,2.433c-0.246,-0.089 -0.515,-0.155 -0.806,-0.2c-0.291,-0.044 -0.705,-0.066 -1.243,-0.066c-0.694,-0 -1.394,0.2 -2.099,0.6c-0.705,0.4 -1.293,1.005 -1.763,1.816c-0.471,0.811 -0.706,1.839 -0.706,3.084l0,9l-2.687,-0Z" style="fill:#263238;fill-rule:nonzero;"/><path d="M648.094,191.024l2.822,-0l-6.987,16.667l-2.687,-0l-6.987,-16.667l3.057,-0l5.307,13.967l5.475,-13.967Z" style="fill:#263238;fill-rule:nonzero;"/><path d="M654.88,187.824c-0.605,-0 -1.092,-0.183 -1.462,-0.55c-0.369,-0.367 -0.554,-0.85 -0.554,-1.45c0,-0.6 0.185,-1.083 0.554,-1.45c0.37,-0.367 0.857,-0.55 1.462,-0.55c0.604,-0 1.091,0.183 1.461,0.55c0.369,0.367 0.554,0.85 0.554,1.45c0,0.6 -0.185,1.083 -0.554,1.45c-0.37,0.367 -0.857,0.55 -1.461,0.55Zm1.343,3.2l0,16.667l-2.687,-0l-0,-16.667l2.687,-0Z" style="fill:#263238;fill-rule:nonzero;"/><path d="M668.517,190.691c1.165,-0 2.189,0.177 3.074,0.533c0.884,0.355 1.651,0.867 2.301,1.533c0.649,0.667 1.175,1.456 1.579,2.367l-2.553,1.2c-0.359,-1.067 -0.902,-1.883 -1.63,-2.45c-0.727,-0.567 -1.673,-0.85 -2.838,-0.85c-1.12,-0 -2.082,0.25 -2.889,0.75c-0.806,0.5 -1.422,1.222 -1.847,2.167c-0.426,0.944 -0.638,2.083 -0.638,3.416c-0,1.311 0.212,2.445 0.638,3.4c0.425,0.956 1.041,1.684 1.847,2.184c0.807,0.5 1.769,0.75 2.889,0.75c0.873,-0 1.629,-0.134 2.267,-0.4c0.639,-0.267 1.165,-0.656 1.579,-1.167c0.414,-0.511 0.7,-1.133 0.857,-1.867l2.485,0.867c-0.38,1.022 -0.901,1.9 -1.562,2.633c-0.66,0.734 -1.455,1.295 -2.384,1.684c-0.93,0.388 -1.988,0.583 -3.175,0.583c-1.567,-0 -2.967,-0.345 -4.199,-1.033c-1.231,-0.689 -2.194,-1.684 -2.888,-2.984c-0.694,-1.3 -1.042,-2.85 -1.042,-4.65c0,-1.8 0.348,-3.35 1.042,-4.65c0.694,-1.3 1.657,-2.294 2.888,-2.983c1.232,-0.689 2.632,-1.033 4.199,-1.033Z" style="fill:#263238;fill-rule:nonzero;"/><path d="M686.488,208.024c-1.59,-0 -3.006,-0.345 -4.249,-1.033c-1.243,-0.689 -2.211,-1.684 -2.906,-2.984c-0.694,-1.3 -1.041,-2.85 -1.041,-4.65c0,-1.8 0.347,-3.35 1.041,-4.65c0.695,-1.3 1.646,-2.294 2.856,-2.983c1.209,-0.689 2.586,-1.033 4.131,-1.033c1.568,-0 2.906,0.333 4.014,1c1.109,0.666 1.954,1.572 2.536,2.716c0.583,1.145 0.874,2.428 0.874,3.85c-0,0.378 -0.012,0.722 -0.034,1.034c-0.022,0.311 -0.056,0.588 -0.101,0.833l-13.57,-0l-0,-2.367l12.395,0l-1.378,0.267c0,-1.6 -0.442,-2.833 -1.326,-3.7c-0.885,-0.867 -2.044,-1.3 -3.477,-1.3c-1.097,-0 -2.043,0.25 -2.838,0.75c-0.795,0.5 -1.411,1.222 -1.848,2.167c-0.437,0.944 -0.655,2.083 -0.655,3.416c0,1.311 0.224,2.445 0.672,3.4c0.448,0.956 1.08,1.684 1.898,2.184c0.817,0.5 1.797,0.75 2.939,0.75c1.232,-0 2.234,-0.234 3.006,-0.7c0.773,-0.467 1.394,-1.1 1.865,-1.9l2.116,1.233c-0.426,0.755 -0.969,1.411 -1.629,1.967c-0.661,0.555 -1.434,0.983 -2.318,1.283c-0.885,0.3 -1.876,0.45 -2.973,0.45Z" style="fill:#263238;fill-rule:nonzero;"/></g></g></svg>