<?xml version="1.0" encoding="UTF-8" standalone="no"?><!DOCTYPE svg PUBLIC "-//W3C//DTD SVG 1.1//EN" "http://www.w3.org/Graphics/SVG/1.1/DTD/svg11.dtd"><svg width="100%" height="100%" viewBox="0 0 800 450" version="1.1" xmlns="http://www.w3.org/2000/svg" xmlns:xlink="http://www.w3.org/1999/xlink" xml:space="preserve" xmlns:serif="http://www.serif.com/" style="fill-rule:evenodd;clip-rule:evenodd;stroke-linecap:round;stroke-linejoin:round;"><g id="nginx"><path id="a" d="M64.492,283.201l-0,-116.218l116.205,116.218l0,-116.218" style="fill:none;fill-rule:nonzero;stroke:#090;stroke-width:30.48px;"/><path d="M251.272,151.893l-4.191,7.81l-32.385,58.865l-4.191,7.429l4.191,7.43l32.385,56.959l4.381,7.811l84.773,-0l4.191,-8.573l24.194,-48.768l10.858,-22.098l-24.574,0l-61.913,0.191c-8.052,-0.114 -15.457,7.187 -15.457,15.24c-0,8.052 7.405,15.354 15.457,15.24l37.338,-0.191l-9.144,18.479l-48.006,-0l-23.813,-41.91l24.003,-43.434l51.068,-0l11.906,24.431l30.671,0l-19.336,-46.339l-4.191,-8.572l-88.215,-0Z" style="fill:#090;fill-rule:nonzero;"/><path d="M405.661,151.702c-7.979,0.1 -15.149,7.451 -15.049,15.431l-0,39.712l30.48,0l-0,-39.712c0.101,-8.107 -7.324,-15.532 -15.431,-15.431Z" style="fill:#090;fill-rule:nonzero;"/><path id="a1" serif:id="a" d="M570.726,283.496l-0,-116.218l-116.206,116.218l0,-116.218" style="fill:none;fill-rule:nonzero;stroke:#090;stroke-width:30.48px;"/><g><path id="b" d="M619.031,167.235l116.341,115.933" style="fill:none;fill-rule:nonzero;stroke:#090;stroke-width:30.48px;"/><path id="b1" serif:id="b" d="M735.508,167.235l-116.341,115.933" style="fill:none;fill-rule:nonzero;stroke:#090;stroke-width:30.48px;"/></g><path d="M405.661,298.298c-7.979,-0.1 -15.149,-7.451 -15.049,-15.431l-0,-63.791l30.48,0l-0,63.791c0.101,8.107 -7.324,15.532 -15.431,15.431Z" style="fill:#090;fill-rule:nonzero;"/></g></svg>