<?xml version="1.0" encoding="UTF-8" standalone="no"?><!DOCTYPE svg PUBLIC "-//W3C//DTD SVG 1.1//EN" "http://www.w3.org/Graphics/SVG/1.1/DTD/svg11.dtd"><svg width="100%" height="100%" viewBox="0 0 800 450" version="1.1" xmlns="http://www.w3.org/2000/svg" xmlns:xlink="http://www.w3.org/1999/xlink" xml:space="preserve" xmlns:serif="http://www.serif.com/" style="fill-rule:evenodd;clip-rule:evenodd;stroke-linejoin:round;stroke-miterlimit:2;"><g id="odoo"><path d="M227.836,170.37c7.398,0 14.384,1.473 20.955,4.417c6.569,2.945 12.345,6.91 17.33,11.893c4.983,4.984 8.948,10.8 11.893,17.443c2.944,6.649 4.417,13.745 4.417,21.294c-0,7.554 -1.437,14.612 -4.304,21.182c-2.871,6.569 -6.761,12.345 -11.667,17.329c-4.91,4.984 -10.686,8.913 -17.33,11.78c-6.648,2.871 -13.819,4.305 -21.521,4.305c-7.554,-0 -14.65,-1.359 -21.294,-4.078c-6.648,-2.719 -12.459,-6.53 -17.443,-11.44c-4.983,-4.906 -8.912,-10.682 -11.78,-17.33c-2.87,-6.644 -4.304,-13.893 -4.304,-21.748c-0,-7.549 1.394,-14.611 4.19,-21.18c2.793,-6.57 6.683,-12.307 11.667,-17.216c4.984,-4.907 10.835,-8.836 17.557,-11.78c6.718,-2.945 13.932,-4.567 21.634,-4.871Zm-0.227,22.427c-4.381,-0 -8.572,0.832 -12.572,2.492c-4.003,1.663 -7.475,3.964 -10.421,6.909c-2.945,2.945 -5.287,6.382 -7.022,10.307c-1.738,3.929 -2.605,8.234 -2.605,12.912c-0,4.382 0.868,8.573 2.605,12.573c1.735,4.003 4.077,7.515 7.022,10.534c2.945,3.023 6.418,5.401 10.421,7.136c4,1.738 8.191,2.605 12.572,2.605c4.379,0 8.57,-0.868 12.574,-2.605c3.999,-1.735 7.475,-4.113 10.42,-7.136c2.945,-3.019 5.285,-6.53 7.023,-10.534c1.734,-4 2.604,-8.191 2.604,-12.573c-0.453,-8.908 -3.624,-16.423 -9.513,-22.54c-5.891,-6.116 -13.519,-9.475 -22.88,-10.081l-0.228,-0l0,0.001Z" style="fill:#a24689;fill-rule:nonzero;"/><path d="M385.503,135.484c2.566,-0.149 4.983,0.871 7.249,3.059c2.266,2.191 3.397,4.569 3.397,7.136l0,79.513c0,7.401 -1.511,14.423 -4.53,21.067c-3.023,6.648 -7.1,12.46 -12.233,17.443c-5.136,4.984 -10.987,8.949 -17.556,11.893c-6.569,2.945 -13.479,4.418 -20.728,4.418c-7.401,-0 -14.423,-1.434 -21.068,-4.305c-6.647,-2.867 -12.459,-6.796 -17.443,-11.78c-4.983,-4.983 -8.948,-10.795 -11.893,-17.443c-2.945,-6.643 -4.417,-13.741 -4.417,-21.293c0,-8.156 1.32,-15.327 3.964,-21.522c2.641,-6.19 6.605,-12.006 11.893,-17.443l0,0.228c5.586,-5.285 11.741,-9.289 18.462,-12.007c6.719,-2.719 13.628,-4.078 20.728,-4.078c4.226,0 9.249,0.68 15.064,2.039c5.813,1.359 11.589,4.003 17.331,7.929l-0,-33.527c-0,-1.508 0.3,-2.945 0.906,-4.304c0.601,-1.359 1.395,-2.606 2.379,-3.738c0.98,-1.133 2.151,-2 3.511,-2.605c1.359,-0.601 2.719,-0.829 4.078,-0.68l0.906,0Zm-11.78,89.708c-0,-4.078 -0.871,-8.078 -2.605,-12.007c-1.738,-3.926 -4.117,-7.437 -7.136,-10.534c-3.024,-3.094 -6.496,-5.551 -10.421,-7.362c-3.929,-1.812 -8.081,-2.719 -12.459,-2.719c-4.382,0 -8.573,0.87 -12.573,2.605c-4.003,1.738 -7.476,4.078 -10.421,7.023c-2.944,2.944 -5.288,6.42 -7.022,10.42c-1.738,4.003 -2.605,8.195 -2.605,12.573c0,4.53 0.867,8.76 2.605,12.685c1.734,3.929 4.078,7.363 7.022,10.307c2.945,2.945 6.417,5.288 10.421,7.022c4,1.738 8.191,2.606 12.573,2.606c4.378,-0 8.53,-0.868 12.459,-2.606c3.925,-1.734 7.397,-4.077 10.421,-7.022c3.019,-2.944 5.398,-6.378 7.136,-10.307c1.733,-3.924 2.605,-8.154 2.605,-12.684Z" style="fill:#8f8f8f;fill-rule:nonzero;"/><path d="M457.539,170.37c7.398,0 14.385,1.473 20.955,4.417c6.57,2.945 12.345,6.91 17.33,11.893c4.983,4.984 8.948,10.8 11.893,17.443c2.945,6.649 4.417,13.745 4.417,21.294c0,7.554 -1.437,14.612 -4.304,21.182c-2.871,6.569 -6.76,12.345 -11.667,17.329c-4.909,4.984 -10.686,8.913 -17.33,11.78c-6.647,2.871 -13.818,4.305 -21.521,4.305c-7.553,-0 -14.65,-1.359 -21.294,-4.078c-6.647,-2.719 -12.459,-6.53 -17.443,-11.44c-4.983,-4.906 -8.912,-10.682 -11.779,-17.33c-2.871,-6.644 -4.305,-13.893 -4.305,-21.748c0,-7.549 1.395,-14.611 4.191,-21.18c2.793,-6.57 6.682,-12.307 11.667,-17.216c4.983,-4.907 10.834,-8.836 17.556,-11.78c6.718,-2.945 13.932,-4.567 21.634,-4.871Zm-0.226,22.427c-4.382,-0 -8.572,0.832 -12.572,2.492c-4.003,1.663 -7.475,3.964 -10.421,6.909c-2.945,2.945 -5.288,6.382 -7.022,10.307c-1.738,3.929 -2.606,8.234 -2.606,12.912c0,4.382 0.868,8.573 2.606,12.573c1.734,4.003 4.077,7.515 7.022,10.534c2.945,3.023 6.417,5.401 10.421,7.136c4,1.738 8.19,2.605 12.572,2.605c4.378,0 8.57,-0.868 12.573,-2.605c4,-1.735 7.475,-4.113 10.421,-7.136c2.945,-3.019 5.284,-6.53 7.022,-10.534c1.734,-4 2.605,-8.191 2.605,-12.573c-0.453,-8.908 -3.625,-16.423 -9.514,-22.54c-5.89,-6.116 -13.518,-9.475 -22.88,-10.081l-0.227,-0l0,0.001Z" style="fill:#8f8f8f;fill-rule:nonzero;"/><path d="M572.618,170.37c7.397,0 14.384,1.473 20.955,4.417c6.569,2.945 12.345,6.91 17.329,11.893c4.984,4.984 8.948,10.8 11.893,17.443c2.945,6.649 4.417,13.745 4.417,21.294c0,7.554 -1.437,14.612 -4.303,21.182c-2.872,6.569 -6.761,12.345 -11.668,17.329c-4.909,4.984 -10.686,8.913 -17.329,11.78c-6.648,2.871 -13.819,4.305 -21.521,4.305c-7.554,-0 -14.651,-1.359 -21.294,-4.078c-6.648,-2.719 -12.459,-6.53 -17.443,-11.44c-4.984,-4.906 -8.913,-10.682 -11.78,-17.33c-2.87,-6.644 -4.305,-13.893 -4.305,-21.748c0,-7.549 1.395,-14.611 4.191,-21.18c2.793,-6.57 6.682,-12.307 11.667,-17.216c4.983,-4.907 10.834,-8.836 17.556,-11.78c6.719,-2.945 13.932,-4.567 21.635,-4.871Zm-0.227,22.427c-4.382,-0 -8.573,0.832 -12.573,2.492c-4.003,1.663 -7.475,3.964 -10.421,6.909c-2.945,2.945 -5.287,6.382 -7.022,10.307c-1.738,3.929 -2.605,8.234 -2.605,12.912c-0,4.382 0.868,8.573 2.605,12.573c1.735,4.003 4.077,7.515 7.022,10.534c2.945,3.023 6.418,5.401 10.421,7.136c4,1.738 8.191,2.605 12.573,2.605c4.378,0 8.569,-0.868 12.573,-2.605c3.999,-1.735 7.475,-4.113 10.42,-7.136c2.945,-3.019 5.285,-6.53 7.023,-10.534c1.734,-4 2.604,-8.191 2.604,-12.573c-0.453,-8.908 -3.624,-16.423 -9.514,-22.54c-5.89,-6.116 -13.518,-9.475 -22.879,-10.081l-0.227,-0l-0,0.001Z" style="fill:#8f8f8f;fill-rule:nonzero;"/></g></svg>