<?xml version="1.0" encoding="UTF-8" standalone="no"?><!DOCTYPE svg PUBLIC "-//W3C//DTD SVG 1.1//EN" "http://www.w3.org/Graphics/SVG/1.1/DTD/svg11.dtd"><svg width="100%" height="100%" viewBox="0 0 800 450" version="1.1" xmlns="http://www.w3.org/2000/svg" xmlns:xlink="http://www.w3.org/1999/xlink" xml:space="preserve" xmlns:serif="http://www.serif.com/" style="fill-rule:evenodd;clip-rule:evenodd;stroke-linejoin:round;stroke-miterlimit:2;"><g id="php"><g id="g3440"><g id="g3442"><clipPath id="_clip1"><path d="M144.431,235.261c0,74.248 114.424,134.439 255.569,134.439c141.144,-0 255.569,-60.191 255.569,-134.439c-0,-74.247 -114.425,-134.439 -255.569,-134.439c-141.145,0 -255.569,60.192 -255.569,134.439"/></clipPath><g clip-path="url(#_clip1)"><g id="g3448"><g id="g3450"><path id="path3462" d="M144.431,235.261c0,74.248 114.424,134.439 255.569,134.439c141.144,-0 255.569,-60.191 255.569,-134.439c-0,-74.247 -114.425,-134.439 -255.569,-134.439c-141.145,0 -255.569,60.192 -255.569,134.439" style="fill:url(#_Radial2);fill-rule:nonzero;"/></g></g></g></g></g><g id="g3464"><g id="g3466"><g id="g3472"><path id="path3474" d="M400,359.718c135.631,-0 245.585,-55.722 245.585,-124.457c-0,-68.735 -109.954,-124.458 -245.585,-124.458c-135.632,0 -245.586,55.723 -245.586,124.458c0,68.735 109.954,124.457 245.586,124.457" style="fill:#777bb3;fill-rule:nonzero;"/></g></g></g><g id="g3476"><g id="g3478"><g id="g3484"><path id="path3486" d="M283.284,250.692c11.153,-0 19.478,-2.057 24.746,-6.111c5.212,-4.013 8.811,-10.965 10.698,-20.663c1.759,-9.064 1.089,-15.393 -1.991,-18.809c-3.149,-3.488 -9.958,-5.257 -20.237,-5.257l-17.823,-0l-9.881,50.84l14.488,-0Zm-58.293,62.625c-0.827,0 -1.613,-0.369 -2.139,-1.009c-0.527,-0.639 -0.741,-1.48 -0.582,-2.292l26.185,-134.728c0.253,-1.302 1.395,-2.243 2.722,-2.243l56.436,0c17.737,0 30.939,4.816 39.237,14.316c8.342,9.549 10.918,22.898 7.656,39.674c-1.327,6.835 -3.61,13.183 -6.785,18.866c-3.179,5.689 -7.381,10.953 -12.489,15.649c-6.116,5.724 -13.038,9.874 -20.555,12.316c-7.397,2.41 -16.898,3.632 -28.237,3.632l-22.852,0l-6.526,33.575c-0.254,1.303 -1.394,2.244 -2.722,2.244l-29.349,0Z" style="fill-rule:nonzero;"/></g><g id="g3488"><path id="path3490" d="M280.963,202.624l15.537,0c12.406,0 16.715,2.723 18.179,4.345c2.43,2.693 2.888,8.373 1.327,16.423c-1.755,9.013 -5.007,15.403 -9.667,18.991c-4.772,3.673 -12.529,5.535 -23.055,5.535l-11.124,0l8.803,-45.294Zm26.651,-32.353l-56.438,0c-2.654,0 -4.937,1.883 -5.443,4.488l-26.186,134.727c-0.316,1.626 0.111,3.308 1.164,4.586c1.054,1.279 2.624,2.018 4.28,2.018l29.349,0c2.655,0 4.938,-1.882 5.444,-4.488l6.09,-31.331l20.566,-0c11.63,-0 21.421,-1.268 29.098,-3.769c7.895,-2.565 15.159,-6.914 21.588,-12.926c5.317,-4.892 9.696,-10.383 13.015,-16.322c3.319,-5.94 5.704,-12.565 7.088,-19.69c3.434,-17.659 0.644,-31.8 -8.291,-42.028c-8.848,-10.129 -22.752,-15.265 -41.324,-15.265m-42.182,83.193l17.852,0c11.833,0 20.647,-2.228 26.438,-6.687c5.792,-4.459 9.698,-11.901 11.728,-22.329c1.942,-10.013 1.058,-17.079 -2.654,-21.195c-3.715,-4.116 -11.146,-6.175 -22.296,-6.175l-20.109,0l-10.959,56.386m42.182,-77.646c16.977,-0 29.363,4.455 37.148,13.367c7.784,8.912 10.128,21.351 7.022,37.321c-1.278,6.579 -3.44,12.594 -6.484,18.043c-3.048,5.453 -7.027,10.439 -11.945,14.96c-5.86,5.484 -12.371,9.392 -19.534,11.72c-7.164,2.334 -16.289,3.496 -27.381,3.496l-25.139,-0l-6.961,35.819l-29.349,-0l26.185,-134.726l56.438,-0" style="fill:#fff;fill-rule:nonzero;"/></g><g id="g3492"><path id="path3494" d="M421.799,277.498c-0.828,0 -1.613,-0.369 -2.139,-1.009c-0.528,-0.639 -0.741,-1.479 -0.583,-2.293l11.583,-59.611c1.102,-5.669 0.83,-9.738 -0.765,-11.457c-0.976,-1.051 -3.908,-2.814 -12.577,-2.814l-20.985,-0l-14.564,74.94c-0.253,1.303 -1.395,2.244 -2.722,2.244l-29.118,0c-0.828,0 -1.613,-0.369 -2.139,-1.009c-0.527,-0.639 -0.741,-1.48 -0.583,-2.293l26.186,-134.727c0.253,-1.302 1.394,-2.243 2.722,-2.243l29.117,-0c0.829,-0 1.613,0.37 2.14,1.008c0.527,0.64 0.741,1.48 0.583,2.294l-6.319,32.517l22.575,0c17.197,0 28.859,3.032 35.651,9.27c6.924,6.363 9.084,16.537 6.422,30.244l-12.183,62.695c-0.254,1.303 -1.394,2.244 -2.722,2.244l-29.58,0Z" style="fill-rule:nonzero;"/></g><g id="g3496"><path id="path3498" d="M405.232,134.452l-29.117,0c-2.656,0 -4.938,1.882 -5.445,4.488l-26.185,134.727c-0.316,1.626 0.111,3.308 1.165,4.586c1.054,1.278 2.623,2.018 4.28,2.018l29.117,-0c2.655,-0 4.938,-1.882 5.445,-4.488l14.127,-72.697l18.699,0c8.654,0 10.471,1.849 10.544,1.929c0.525,0.564 1.215,3.18 0.076,9.041l-11.584,59.611c-0.316,1.626 0.111,3.308 1.165,4.586c1.054,1.278 2.623,2.018 4.28,2.018l29.58,-0c2.654,-0 4.938,-1.882 5.444,-4.488l12.182,-62.695c2.859,-14.717 0.414,-25.756 -7.266,-32.815c-7.328,-6.73 -19.604,-10.002 -37.528,-10.002l-19.212,0l5.678,-29.214c0.315,-1.626 -0.111,-3.308 -1.165,-4.586c-1.054,-1.278 -2.623,-2.019 -4.28,-2.019m0,5.547l-6.961,35.819l25.94,-0c16.321,-0 27.579,2.849 33.775,8.539c6.196,5.694 8.052,14.92 5.576,27.674l-12.183,62.694l-29.58,-0l11.583,-59.611c1.318,-6.781 0.834,-11.406 -1.455,-13.873c-2.289,-2.466 -7.16,-3.701 -14.609,-3.701l-23.272,0l-14.999,77.185l-29.117,-0l26.185,-134.726l29.117,-0" style="fill:#fff;fill-rule:nonzero;"/></g><g id="g3500"><path id="path3502" d="M512.356,250.692c11.152,-0 19.478,-2.057 24.746,-6.111c5.212,-4.012 8.811,-10.964 10.699,-20.663c1.759,-9.064 1.089,-15.393 -1.992,-18.809c-3.15,-3.488 -9.959,-5.257 -20.237,-5.257l-17.823,-0l-9.881,50.84l14.488,-0Zm-58.292,62.625c-0.828,0 -1.613,-0.369 -2.139,-1.009c-0.527,-0.639 -0.742,-1.48 -0.584,-2.292l26.186,-134.728c0.254,-1.302 1.395,-2.243 2.723,-2.243l56.435,0c17.738,0 30.939,4.816 39.238,14.316c8.342,9.548 10.917,22.897 7.656,39.674c-1.329,6.835 -3.611,13.183 -6.787,18.866c-3.178,5.689 -7.38,10.953 -12.489,15.649c-6.115,5.724 -13.037,9.874 -20.554,12.316c-7.398,2.41 -16.898,3.632 -28.237,3.632l-22.853,0l-6.524,33.575c-0.254,1.303 -1.395,2.244 -2.723,2.244l-29.348,0Z" style="fill-rule:nonzero;"/></g><g id="g3504"><path id="path3506" d="M510.035,202.624l15.537,0c12.406,0 16.715,2.723 18.179,4.345c2.43,2.693 2.889,8.373 1.327,16.422c-1.755,9.014 -5.008,15.404 -9.667,18.992c-4.772,3.673 -12.529,5.535 -23.055,5.535l-11.123,0l8.802,-45.294Zm26.65,-32.353l-56.436,0c-2.654,0 -4.937,1.883 -5.443,4.488l-26.186,134.727c-0.316,1.626 0.111,3.308 1.164,4.586c1.054,1.279 2.623,2.018 4.28,2.018l29.348,0c2.655,0 4.938,-1.882 5.445,-4.488l6.089,-31.331l20.566,-0c11.63,-0 21.421,-1.268 29.098,-3.769c7.895,-2.565 15.161,-6.915 21.59,-12.928c5.316,-4.891 9.694,-10.381 13.013,-16.32c3.319,-5.94 5.704,-12.565 7.088,-19.69c3.434,-17.66 0.644,-31.801 -8.291,-42.028c-8.848,-10.129 -22.751,-15.265 -41.325,-15.265m-42.18,83.193l17.851,0c11.833,0 20.647,-2.228 26.438,-6.687c5.793,-4.459 9.698,-11.901 11.728,-22.329c1.943,-10.013 1.059,-17.079 -2.654,-21.195c-3.716,-4.116 -11.146,-6.175 -22.296,-6.175l-20.109,0l-10.958,56.386m42.18,-77.646c16.978,-0 29.364,4.455 37.149,13.367c7.785,8.912 10.128,21.351 7.022,37.321c-1.278,6.579 -3.44,12.594 -6.484,18.043c-3.048,5.453 -7.027,10.439 -11.945,14.96c-5.86,5.484 -12.371,9.392 -19.534,11.72c-7.164,2.334 -16.289,3.496 -27.381,3.496l-25.139,-0l-6.961,35.819l-29.348,-0l26.185,-134.726l56.436,-0" style="fill:#fff;fill-rule:nonzero;"/></g></g></g></g><defs><radialGradient id="_Radial2" cx="0" cy="0" r="1" gradientUnits="userSpaceOnUse" gradientTransform="matrix(335.598,0,0,335.598,297.876,148.087)"><stop offset="0" style="stop-color:#aeb2d5;stop-opacity:1"/><stop offset="0.3" style="stop-color:#aeb2d5;stop-opacity:1"/><stop offset="0.75" style="stop-color:#484c89;stop-opacity:1"/><stop offset="1" style="stop-color:#484c89;stop-opacity:1"/></radialGradient></defs></svg>