<?xml version="1.0" encoding="UTF-8" standalone="no"?><!DOCTYPE svg PUBLIC "-//W3C//DTD SVG 1.1//EN" "http://www.w3.org/Graphics/SVG/1.1/DTD/svg11.dtd"><svg width="100%" height="100%" viewBox="0 0 800 450" version="1.1" xmlns="http://www.w3.org/2000/svg" xmlns:xlink="http://www.w3.org/1999/xlink" xml:space="preserve" xmlns:serif="http://www.serif.com/" style="fill-rule:evenodd;clip-rule:evenodd;stroke-linejoin:round;stroke-miterlimit:2;"><g id="postgres"><path d="M572.474,186.46c-8.992,4.871 -8.618,20.608 1.124,24.355c10.491,3.747 21.732,4.121 32.223,6.744c2.623,0.749 5.246,1.873 6.37,4.496c2.622,5.246 0.374,13.114 -5.621,14.988c-8.617,2.622 -18.734,2.622 -26.977,-0.75c-5.62,-2.248 -8.243,-7.868 -8.618,-13.114c-2.248,0 -4.87,0 -7.119,0.375c0.375,5.245 1.499,10.866 5.621,14.238c6.744,5.245 15.362,5.995 23.605,6.369c7.493,0 15.736,-0.749 22.106,-4.87c7.494,-5.246 8.243,-19.109 -0.749,-23.605c-8.243,-4.122 -17.61,-4.497 -26.228,-6.37c-4.122,-1.124 -8.992,-1.499 -12.739,-4.122c-4.871,-4.496 -2.623,-13.863 3.747,-15.362c8.243,-2.248 17.235,-2.622 25.103,0.375c4.871,1.499 6.745,6.744 7.494,10.866l7.119,-0c-0,-4.496 -1.499,-9.367 -5.246,-12.365c-5.995,-4.871 -14.238,-5.245 -21.357,-5.245c-6.369,-0.375 -13.488,-0.375 -19.858,2.997Z" style="fill:#326690;fill-rule:nonzero;"/><path d="M305.325,188.334c-3.747,-3.372 -9.367,-4.497 -14.238,-4.497c-10.866,0 -21.732,0.375 -32.597,0.375l-0,57.701l5.62,0c-0,-8.243 -0.375,-16.486 -0,-24.354l27.726,-0c6.745,-0.375 14.613,-3.372 17.236,-10.116c2.248,-6.37 1.499,-14.613 -3.747,-19.109Zm-2.997,17.984c-1.874,4.871 -7.494,6.37 -12.365,6.745c-8.618,0.374 -17.235,-0 -25.478,-0l-0,-23.98l24.729,0c4.121,0 8.992,0.749 11.615,4.122c2.623,3.372 2.997,8.617 1.499,13.113Z" style="fill-rule:nonzero;"/><path d="M700.241,184.212l0,57.701l49.833,0l0,-4.87c-14.238,-0.375 -28.476,-0 -43.089,-0.375l0,-52.831c-2.248,0.375 -4.496,0.375 -6.744,0.375Z" style="fill:#326690;fill-rule:nonzero;"/><path d="M412.484,191.706l0,12.364l-7.493,0l-0,3.747l7.493,0l0,26.228c0,2.623 0.75,5.246 2.998,6.744c4.121,1.874 8.618,1.499 13.114,1.124l-0,-3.746c-2.998,0.374 -5.995,0.749 -8.618,-0.75c-1.873,-1.124 -1.499,-3.372 -1.873,-5.245l-0,-24.355l10.116,0c0,-1.499 0,-2.623 -0.375,-4.121l-10.116,-0l0,-12.365c-1.124,0.375 -3.372,0.375 -5.246,0.375Z" style="fill:#fff;fill-rule:nonzero;"/><path d="M364.9,206.318c-5.246,3.373 -5.246,13.114 1.124,15.737c8.617,2.998 18.359,2.248 27.352,4.871c4.496,1.499 4.87,8.243 0.749,10.491c-5.995,2.998 -13.114,2.623 -19.484,1.499c-4.496,-0.749 -8.243,-3.747 -8.617,-8.618l-6.37,0c0.749,3.372 1.499,7.119 4.496,9.367c4.871,3.372 11.241,3.372 16.861,3.747c5.995,0 12.365,-0.375 17.61,-3.372c4.496,-2.623 5.995,-8.618 3.372,-12.739c-1.873,-2.998 -5.245,-4.122 -8.617,-4.871c-7.119,-1.499 -14.613,-1.499 -21.732,-2.998c-2.623,-0.749 -4.871,-2.622 -4.871,-5.245c0,-3.747 4.122,-5.62 7.494,-6.37c5.245,-0.749 11.24,-1.124 16.486,1.124c2.997,1.124 3.747,4.122 4.496,7.119l6.37,0c-0.375,-3.372 -1.499,-7.119 -4.497,-8.992c-5.62,-3.747 -12.364,-3.747 -18.734,-3.372c-4.496,-0.375 -9.367,-0 -13.488,2.622Z" style="fill:#fff;fill-rule:nonzero;"/><path d="M497.912,204.445c-2.623,1.124 -4.121,3.747 -5.62,6.37l-0,-6.37l-5.995,0c-0.375,12.739 0,25.104 0,37.843l5.62,0l0,-19.483c0,-4.497 1.499,-9.742 5.246,-12.365c4.121,-2.997 9.367,-2.248 14.238,-2.248l-0,-4.871c-4.496,-0.375 -8.993,-0.749 -13.489,1.124Z" style="fill:#fff;fill-rule:nonzero;"/><path d="M638.793,187.21c8.243,-4.122 17.61,-4.871 26.603,-4.122c8.617,0.749 17.235,3.747 22.855,10.491c7.119,7.494 8.618,19.484 5.621,29.226c-1.499,5.62 -5.246,9.741 -9.367,13.488c3.372,2.248 6.744,4.496 10.116,7.119c-1.499,1.499 -2.998,2.623 -4.496,4.122c-3.372,-2.248 -6.745,-4.871 -10.117,-6.745c-2.622,0 -5.245,1.499 -8.243,2.248c-7.493,1.499 -15.736,1.499 -23.23,0c-8.243,-1.498 -16.486,-6.369 -20.982,-13.863c-4.497,-7.119 -4.871,-16.486 -2.998,-24.354c2.248,-7.869 7.494,-14.238 14.238,-17.61Zm11.241,1.498c-7.869,1.874 -15.362,7.494 -17.985,15.362c-2.623,8.618 -1.874,18.735 4.496,25.854c5.62,6.369 13.863,8.992 22.106,8.992c8.993,0.375 18.735,-2.248 24.729,-9.367c8.243,-10.491 7.119,-27.352 -3.746,-35.595c-8.243,-7.119 -19.484,-7.494 -29.6,-5.246Z" style="fill:#326690;fill-rule:nonzero;"/><path d="M412.484,191.706l5.995,-0l0,12.364l10.117,0c-0,1.499 -0,2.623 0.375,4.122l-10.117,-0l0,24.354c0,1.874 0,4.122 1.873,5.246c2.623,1.124 5.621,0.749 8.618,0.749l0,3.747c-4.496,0.375 -8.992,0.749 -13.114,-1.124c-2.623,-1.124 -3.372,-4.121 -2.997,-6.744l-0,-26.228l-7.494,-0l0,-3.747l7.494,0c-0.75,-4.496 -0.75,-8.618 -0.75,-12.739Z" style="fill-rule:nonzero;"/><path d="M348.039,206.318c-6.744,-3.746 -14.987,-4.121 -22.481,-2.997c-6.37,1.124 -12.365,4.496 -14.987,10.491c-2.623,5.995 -2.623,13.114 0.374,19.109c3.372,6.37 10.491,9.742 17.236,10.116c8.617,0.75 18.359,-0.374 24.729,-7.119c6.744,-8.617 5.245,-23.979 -4.871,-29.6Zm-1.124,28.102c-3.372,3.372 -8.243,4.871 -12.739,4.871c-5.246,0.374 -10.866,-0.75 -14.613,-4.122c-4.871,-4.496 -5.62,-11.99 -3.747,-18.359c1.874,-5.621 7.119,-8.993 12.739,-9.742c5.246,-0.75 11.241,-0.375 16.112,2.623c3.747,2.248 5.62,6.369 5.995,10.491c0.749,5.245 -0,10.491 -3.747,14.238Z" style="fill-rule:nonzero;"/><path d="M364.9,206.318c3.747,-2.622 8.617,-2.997 13.114,-3.372c6.369,-0.374 13.488,-0.374 18.734,3.372c2.997,1.874 4.121,5.621 4.496,8.993l-6.37,-0c-0.374,-2.998 -1.498,-5.62 -4.496,-7.119c-5.245,-2.248 -10.866,-2.248 -16.486,-1.124c-3.372,0.375 -7.494,2.248 -7.494,6.369c-0.374,2.623 2.249,4.871 4.871,5.246c7.119,1.873 14.613,1.499 21.732,2.997c3.372,0.75 6.744,2.249 8.618,4.871c2.622,4.122 1.124,10.492 -3.373,12.74c-5.245,2.997 -11.615,3.372 -17.61,3.372c-5.62,-0.375 -11.989,-0.375 -16.86,-3.747c-2.998,-2.248 -4.122,-5.62 -4.497,-9.367l6.37,-0c0,4.871 4.122,8.243 8.618,8.618c6.369,0.749 13.488,1.498 19.483,-1.499c4.122,-2.248 3.747,-8.993 -0.749,-10.491c-8.992,-2.623 -18.734,-1.874 -27.352,-4.871c-5.995,-1.874 -5.995,-11.615 -0.749,-14.988Z" style="fill-rule:nonzero;"/><path d="M446.581,203.696c5.995,-1.499 12.739,-1.499 18.734,0.374c3.372,1.124 5.995,3.747 8.618,5.995c-0,-2.248 0.374,-4.121 0.374,-5.995l5.62,0c0.375,11.616 0,23.231 0.375,34.846c0.375,4.871 -0.749,10.116 -4.496,13.489c-4.871,4.496 -11.99,5.245 -18.36,5.245c-5.62,0 -11.615,-0.375 -16.86,-2.997c-3.372,-1.874 -5.246,-5.621 -5.995,-9.367l5.62,-0c1.124,2.622 2.248,5.62 4.871,6.744c4.121,1.873 8.618,1.873 13.114,1.873c4.871,-0.374 10.491,-1.124 13.488,-5.245c2.998,-4.122 2.249,-9.367 2.249,-14.238c-5.995,6.369 -15.363,7.493 -23.606,6.369c-5.245,-0.749 -10.491,-2.622 -14.238,-6.744c-4.121,-5.246 -4.496,-12.365 -2.997,-18.359c1.499,-5.995 7.494,-10.492 13.489,-11.99Zm4.871,3.747c-4.122,0.749 -8.618,2.622 -10.866,6.369c-2.623,4.496 -2.623,10.491 -1.124,14.987c1.873,4.871 7.493,7.494 12.364,8.244c6.37,0.749 13.863,-0 18.36,-4.871c5.245,-6.37 4.496,-17.236 -2.248,-22.107c-4.497,-3.372 -10.866,-3.372 -16.486,-2.622Z" style="fill-rule:nonzero;"/><path d="M497.912,204.445c4.496,-1.873 8.993,-1.499 13.489,-1.499l-0,4.871c-4.871,0 -10.117,-0.749 -14.238,2.248c-3.747,2.623 -5.246,7.869 -5.246,12.365l0,19.483l-5.62,0c-0.375,-12.739 -0.375,-25.103 0,-37.843l5.995,0l-0,6.37c1.499,-2.248 2.997,-4.871 5.62,-5.995Z" style="fill-rule:nonzero;"/><path d="M513.649,212.313c3.747,-6.369 11.615,-8.992 18.734,-9.367c7.494,-0.374 15.737,0.75 20.982,6.37c4.122,3.747 5.246,9.367 5.621,14.987l-42.34,0c0.375,3.747 1.499,7.869 4.497,10.491c5.62,4.871 13.863,5.621 20.607,3.747c4.496,-1.124 8.243,-4.496 9.742,-8.992l6.37,-0c-1.874,6.369 -7.494,10.866 -13.864,12.364c-8.617,1.874 -18.734,1.499 -26.228,-3.746c-7.493,-5.246 -8.992,-17.611 -4.121,-25.854Zm10.866,-2.997c-4.122,2.248 -6.37,6.744 -7.119,11.24l35.969,0c-0.374,-2.622 -1.124,-5.62 -2.997,-7.493c-6.37,-7.494 -17.985,-8.243 -25.853,-3.747Z" style="fill-rule:nonzero;"/><path d="M148.333,143.372c-7.119,-1.124 -14.613,-1.499 -21.732,-0.375c-4.121,0.749 -8.243,2.623 -11.615,4.496c-11.615,-3.747 -24.729,-5.995 -36.719,-3.747c-8.618,1.499 -16.861,6.745 -21.357,14.613c-5.62,9.367 -6.744,20.608 -5.995,31.473c1.499,11.99 4.496,23.98 7.868,35.595c2.998,10.117 6.37,20.233 11.99,29.226c2.998,4.87 7.494,10.116 13.489,11.615c4.871,1.124 9.742,-0.375 13.488,-3.372c1.874,1.873 4.122,3.372 6.745,4.121c7.119,2.623 14.987,2.623 22.106,-0.375c0.375,9.742 0,19.859 3.747,28.851c1.499,4.496 3.747,8.618 7.868,11.241c4.496,2.997 9.742,3.372 14.988,2.622c4.496,-0.749 9.367,-2.248 13.114,-4.496c4.121,-2.623 7.493,-6.369 9.367,-10.866c4.496,-10.116 4.871,-20.982 5.245,-31.848c10.491,0.75 21.357,-1.873 29.225,-8.992c2.998,-2.623 5.621,-6.744 4.497,-10.866c-1.124,-3.747 -5.246,-6.37 -8.993,-5.995c-4.121,0.375 -7.868,1.499 -11.99,1.499c8.993,-15.737 16.112,-32.598 19.109,-50.208c1.124,-7.493 2.248,-14.987 0,-22.481c-1.124,-4.121 -4.121,-7.493 -7.119,-10.491c-6.744,-6.744 -16.111,-11.24 -25.478,-13.114c-10.866,-2.248 -21.732,-1.124 -31.848,1.874Z" style="fill:#fff;fill-rule:nonzero;"/><path d="M147.958,147.868c11.241,-3.372 23.23,-4.496 34.471,-1.124c8.992,2.623 17.235,7.868 22.856,15.362c2.248,2.997 2.997,7.119 2.997,10.866c0.375,6.744 -1.124,13.488 -2.623,19.858c-4.121,17.235 -11.615,33.347 -20.982,48.334c5.246,2.248 11.241,1.124 16.486,0.375c2.248,-0.375 5.246,-1.124 6.744,1.124c1.499,2.248 0,4.871 -1.498,6.369c-7.869,7.869 -19.859,9.742 -30.35,7.869c-1.124,9.367 -2.248,18.734 -3.747,28.476c-0.749,5.245 -2.622,10.865 -6.744,14.238c-3.747,3.372 -8.992,4.87 -13.863,5.62c-4.871,0.749 -10.866,0.375 -14.613,-3.372c-4.121,-3.747 -6.744,-9.367 -7.119,-14.613c-1.124,-9.367 -1.124,-19.109 -1.124,-28.476c-4.496,3.747 -10.491,5.995 -16.486,5.62c-4.121,-0.374 -8.992,-1.124 -11.99,-4.121c-1.873,-1.499 -1.498,-4.496 0.375,-5.995c3.372,-2.623 7.868,-2.248 11.615,-3.747c2.998,-0.749 4.496,-3.747 5.995,-5.62c-3.372,-0.375 -6.744,-1.124 -9.367,-2.623c-4.496,4.871 -8.992,10.117 -13.114,14.987c-2.623,2.998 -5.995,5.621 -10.116,4.871c-4.497,-0.749 -7.869,-4.121 -10.491,-7.493c-4.871,-7.119 -8.244,-15.362 -10.866,-23.605c-4.122,-13.489 -7.494,-26.978 -9.367,-40.841c-1.124,-10.491 -0,-21.732 5.995,-30.349c4.87,-7.119 13.113,-10.866 21.356,-11.615c11.241,-1.124 22.481,1.124 32.973,4.87c8.617,-5.62 19.858,-6.744 29.974,-4.496c1.124,-0.749 1.874,-0.374 2.623,-0.749Zm8.243,2.997c2.248,1.499 4.496,2.623 6.744,4.122c8.993,5.995 16.112,14.613 20.233,24.354c1.124,2.998 2.623,5.621 2.248,8.993c0,6.369 -2.248,12.739 -1.498,19.109c0.749,6.744 2.248,13.863 0.374,20.607c-0.374,2.248 -1.873,4.496 -2.622,6.744c-0,0.375 0.374,1.124 0.374,1.124c0.75,-1.124 1.499,-2.248 2.248,-3.372c7.119,-11.615 12.365,-24.354 16.112,-37.468c1.873,-7.119 3.372,-14.613 3.372,-22.106c-0,-2.998 -0.375,-6.37 -2.248,-8.993c-4.122,-5.245 -9.742,-9.367 -16.112,-11.99c-9.367,-2.997 -19.483,-3.372 -29.225,-1.124Zm-26.228,0.75c-7.119,0.749 -13.863,4.871 -17.985,10.491c-5.62,7.868 -8.243,17.61 -8.992,26.977c5.995,-2.623 12.365,-5.246 19.109,-3.747c4.121,1.124 7.494,4.871 8.243,8.993c1.873,8.617 2.997,17.235 1.124,25.853c-1.499,6.744 -5.62,12.739 -7.119,19.858c1.873,-0 3.747,0.375 5.246,1.124c3.372,1.873 5.245,5.62 4.87,9.367c-0.374,9.367 -0.374,18.734 0.375,28.101c0.375,3.747 0.375,7.869 1.499,11.616c1.499,4.496 4.496,8.992 9.367,10.116c5.246,0.749 10.491,-0.749 15.362,-2.997c4.496,-2.249 6.744,-7.494 7.494,-12.365c1.498,-10.116 2.622,-20.233 3.746,-30.349c0.375,-3.747 -0.374,-7.494 1.874,-10.866c1.124,-2.248 3.372,-2.998 5.245,-4.122c-1.498,-2.248 -3.372,-4.496 -4.87,-6.744c-4.871,-10.491 -11.616,-20.233 -13.864,-31.473c-0.749,-4.871 -0.374,-10.492 3.747,-13.864c4.496,-3.747 10.491,-3.372 16.112,-3.372c-3.373,-9.367 -9.368,-17.61 -16.861,-23.605c-9.742,-7.119 -22.107,-10.491 -33.722,-8.992Zm-49.833,0.749c-6.369,1.124 -12.739,4.871 -16.111,10.866c-4.496,7.868 -4.871,16.861 -4.122,25.478c1.499,11.241 4.122,22.481 7.494,33.722c2.998,9.367 5.995,18.734 11.241,26.977c1.873,2.998 4.121,5.995 7.493,7.119c2.998,0.749 5.246,-1.873 7.119,-3.747c3.747,-4.871 8.243,-9.367 12.365,-14.238c-5.995,-5.245 -8.993,-13.488 -8.243,-21.731c0.749,-5.995 1.124,-12.365 0.749,-18.735c-0.749,-8.617 0.75,-17.61 3.372,-26.227c1.874,-6.37 5.246,-11.99 9.742,-16.861c-10.116,-2.248 -20.982,-4.496 -31.099,-2.623Zm87.302,38.592c-2.998,2.249 -2.998,6.745 -2.249,10.117c2.249,10.866 8.618,19.858 13.114,29.6c3.747,-7.119 1.499,-15.362 0.75,-23.23c-0.75,-6.37 1.124,-12.365 1.499,-18.36c-4.122,0 -8.993,-0.749 -13.114,1.873Zm-64.821,4.122c0,5.246 0.375,10.491 0,15.362c-0.374,4.496 -1.498,8.992 -0.374,13.489c1.498,8.243 8.617,14.987 17.235,14.987c1.124,-4.122 2.623,-8.243 4.496,-11.99c5.246,-10.116 4.122,-21.732 1.499,-32.223c-0.749,-2.997 -3.372,-5.245 -6.37,-5.245c-5.994,-0 -11.615,2.623 -16.486,5.62Zm76.061,50.582c-1.499,1.499 -1.499,3.747 -1.499,5.62c3.373,1.125 7.119,1.125 10.866,0.75c5.246,-0.75 10.866,-2.248 14.987,-6.37c-6.369,0.75 -13.488,2.248 -19.858,-0.749c-1.498,-0.75 -3.372,-0 -4.496,0.749Zm-61.823,7.494c-3.746,2.248 -8.243,1.873 -11.615,3.747c7.494,3.747 18.36,2.622 23.605,-4.496c2.623,-2.623 0,-7.869 -3.372,-7.494c-3.747,2.248 -5.246,6.369 -8.618,8.243Z" style="fill:#fff;fill-rule:nonzero;"/><path d="M168.94,192.455c2.248,-1.499 5.246,-1.499 7.494,-0.749c-0,2.997 -3.747,5.245 -6.37,3.747c-0.749,-0.375 -2.248,-1.874 -1.124,-2.998Z" style="fill:#fff;fill-rule:nonzero;"/><path d="M116.11,192.83c2.248,-0.749 4.871,-0.375 6.744,1.124c1.124,1.124 0,2.997 -1.124,3.372c-2.623,1.873 -6.744,0 -7.119,-2.997c0,-0.75 0.75,-1.499 1.499,-1.499Z" style="fill:#fff;fill-rule:nonzero;"/><path d="M156.201,150.865c9.367,-2.248 19.858,-1.873 28.851,1.499c6.369,2.248 11.99,6.744 16.111,11.99c2.248,2.623 2.248,5.995 2.248,8.992c0,7.494 -1.499,14.613 -3.372,22.107c-3.747,13.114 -8.992,25.853 -16.111,37.468c-0.75,1.124 -1.499,2.248 -2.248,3.372c-0,-0.375 -0.375,-1.124 -0.375,-1.124c0.749,-2.248 2.248,-4.496 2.623,-6.744c1.873,-6.745 0.374,-13.863 -0.375,-20.608c-0.749,-6.369 1.499,-12.739 1.499,-19.109c0.374,-2.997 -1.124,-5.995 -2.248,-8.992c-4.497,-9.742 -11.241,-18.36 -20.233,-24.354c-1.499,-1.874 -4.122,-2.998 -6.37,-4.497Z" style="fill:#326690;fill-rule:nonzero;"/><path d="M129.973,151.615c11.615,-1.499 23.98,1.873 33.347,8.992c7.494,5.995 13.863,14.238 16.861,23.605c-5.246,0 -11.615,-0.375 -16.112,3.372c-4.121,3.372 -4.496,8.993 -3.746,13.864c2.248,11.615 8.992,21.357 13.863,31.473c1.124,2.623 2.997,4.496 4.871,6.744c-2.248,1.124 -4.122,1.874 -5.246,4.122c-1.873,3.372 -1.124,7.119 -1.873,10.866c-1.124,10.116 -2.248,20.233 -3.747,30.349c-0.749,4.871 -2.998,10.116 -7.494,12.365c-4.496,2.248 -10.116,3.746 -15.362,2.997c-4.871,-0.749 -8.243,-5.62 -9.367,-10.116c-1.124,-3.747 -1.124,-7.869 -1.499,-11.616c-0.374,-9.367 -0.374,-18.734 -0.374,-28.101c0.374,-3.747 -1.499,-7.494 -4.871,-9.367c-1.499,-0.749 -3.372,-1.124 -5.246,-1.124c1.499,-6.744 5.621,-12.739 7.119,-19.858c1.874,-8.618 0.75,-17.236 -1.124,-25.853c-0.749,-4.122 -4.121,-7.869 -8.243,-8.993c-6.744,-1.499 -13.114,0.75 -19.109,3.747c0.75,-9.367 3.373,-19.109 8.993,-26.977c4.496,-5.62 11.24,-9.367 18.359,-10.491Z" style="fill:#326690;fill-rule:nonzero;"/><path d="M80.14,152.364c10.492,-1.873 20.983,0 31.099,2.998c-4.496,4.87 -7.868,10.491 -9.742,16.86c-2.622,8.243 -3.747,17.236 -3.372,26.228c0.375,6.37 0.375,12.365 -0.749,18.734c-1.124,7.869 2.248,16.112 8.243,21.732c-4.122,4.871 -8.243,9.367 -12.365,14.238c-1.873,2.248 -4.121,4.496 -7.119,3.747c-3.372,-1.124 -5.62,-4.122 -7.493,-7.119c-5.246,-8.243 -8.243,-17.61 -11.241,-26.977c-3.372,-10.866 -5.995,-22.107 -7.494,-33.722c-0.749,-8.618 -0.374,-17.985 4.122,-25.478c3.372,-5.995 9.367,-9.742 16.111,-11.241Z" style="fill:#326690;fill-rule:nonzero;"/><path d="M167.442,190.956c3.746,-2.622 8.992,-2.248 13.114,-1.873c-0.375,5.995 -2.249,11.99 -1.499,18.36c0.749,7.493 2.623,15.736 -0.75,23.23c-4.87,-9.742 -11.24,-18.734 -13.114,-29.6c-0.374,-3.372 -0.374,-7.494 2.249,-10.117Zm1.498,1.499c-1.124,1.124 0,2.623 1.124,2.998c2.623,1.498 6.37,-0.75 6.37,-3.747c-2.248,-0.75 -5.246,-0.75 -7.494,0.749Z" style="fill:#326690;fill-rule:nonzero;"/><path d="M102.621,195.078c4.871,-2.997 10.492,-5.62 16.112,-5.246c2.997,0 5.62,2.249 6.369,5.246c2.623,10.491 3.373,22.106 -1.498,32.223c-1.874,3.747 -3.373,7.868 -4.497,11.99c-8.617,-0 -15.736,-7.119 -17.235,-14.988c-1.124,-4.496 0.375,-8.992 0.375,-13.488c0.749,-5.621 0.374,-10.491 0.374,-15.737Zm13.489,-2.248c-0.749,0.375 -1.499,0.749 -1.499,1.499c0.375,2.997 4.496,4.87 7.119,2.997c1.124,-0.749 2.248,-2.248 1.124,-3.372c-1.873,-1.499 -4.496,-1.873 -6.744,-1.124Z" style="fill:#326690;fill-rule:nonzero;"/><path d="M178.682,245.66c1.124,-0.749 2.998,-1.873 4.496,-0.749c5.995,3.372 13.114,1.499 19.858,0.749c-4.121,3.747 -9.367,5.62 -14.987,6.37c-3.747,0.375 -7.493,0.749 -10.866,-0.75c0,-1.873 0,-4.121 1.499,-5.62Z" style="fill:#326690;fill-rule:nonzero;"/><path d="M116.859,253.154c3.372,-1.874 4.871,-5.995 8.243,-8.243c3.373,-0.375 6.37,4.871 3.373,7.494c-5.246,7.118 -16.112,8.617 -23.606,4.496c3.747,-1.499 8.244,-1.499 11.99,-3.747Z" style="fill:#326690;fill-rule:nonzero;"/><path d="M148.333,143.372c10.116,-2.623 20.982,-3.747 31.473,-1.874c9.367,1.499 18.36,6.37 25.479,13.114c2.997,2.998 5.995,6.37 7.119,10.491c2.248,7.494 1.124,14.988 -0,22.481c-3.373,17.61 -10.117,34.471 -19.109,50.208c4.121,-0 7.868,-1.124 11.99,-1.499c3.746,-0.375 8.243,2.248 8.992,5.995c1.124,4.122 -1.499,8.243 -4.496,10.866c-8.243,7.119 -19.484,9.367 -29.6,8.992c-0.75,10.866 -0.75,21.732 -5.246,31.848c-2.248,4.497 -5.245,8.243 -9.367,10.866c-4.121,2.623 -8.618,3.747 -13.114,4.496c-4.871,0.75 -10.491,0.375 -14.987,-2.622c-4.122,-2.623 -6.37,-6.745 -7.868,-11.241c-3.373,-9.367 -2.998,-19.109 -3.747,-28.851c-7.119,2.998 -14.988,2.998 -22.107,0.375c-2.622,-0.749 -4.87,-2.248 -6.744,-4.121c-3.747,2.997 -8.618,4.496 -13.488,3.372c-5.995,-1.499 -10.117,-6.745 -13.489,-11.615c-5.62,-8.993 -8.992,-19.109 -11.99,-29.226c-3.372,-11.615 -6.37,-23.23 -7.868,-35.595c-0.75,-10.865 -0,-22.106 5.995,-31.473c4.496,-7.494 12.739,-12.739 21.357,-14.613c12.364,-2.622 25.103,0 36.719,3.373c3.746,-1.874 7.493,-3.747 11.615,-4.497c7.868,-1.124 15.362,-0.374 22.481,0.75Zm-0.375,4.496c-0.749,0.375 -1.873,-0.375 -2.623,-0.375c-10.116,-2.248 -21.357,-1.124 -29.974,4.496c-10.492,-3.746 -21.732,-5.995 -32.973,-4.87c-8.243,0.749 -16.86,4.87 -21.356,11.615c-5.995,8.992 -6.745,20.233 -5.995,30.349c1.873,13.863 5.245,27.352 9.367,40.466c2.997,8.243 5.995,16.486 10.866,23.605c2.622,3.372 5.994,7.119 10.491,7.494c4.121,0.374 7.493,-1.874 10.116,-4.871c4.496,-5.246 8.618,-10.117 13.114,-14.988c2.997,1.499 6.37,2.248 9.367,2.623c-1.873,2.248 -3.372,4.871 -5.995,5.62c-3.747,1.499 -8.243,1.124 -11.615,3.747c-1.873,1.499 -2.248,4.496 -0.375,5.995c2.998,2.998 7.869,3.747 11.99,4.122c5.995,0.374 11.99,-1.499 16.486,-5.621c0,9.367 0,19.109 1.124,28.476c0.375,5.621 2.998,11.241 7.119,14.613c3.747,3.372 9.742,4.121 14.613,3.372c4.871,-1.124 10.116,-2.623 13.863,-5.62c4.122,-3.747 5.995,-8.993 6.744,-14.238c1.499,-9.367 2.623,-18.734 3.747,-28.476c10.491,1.873 22.481,-0.375 30.35,-7.868c1.498,-1.499 3.372,-4.497 1.498,-6.37c-1.498,-1.873 -4.496,-1.499 -6.744,-1.124c-5.245,1.124 -11.24,2.248 -16.486,-0.375c9.367,-14.987 16.861,-31.098 20.982,-48.334c1.499,-6.369 2.623,-13.114 2.623,-19.858c-0.375,-3.747 -0.749,-7.868 -2.997,-10.866c-5.621,-7.494 -13.864,-12.739 -22.856,-15.362c-10.866,-1.499 -23.23,-0.749 -34.471,2.623Z" style="fill-rule:nonzero;"/></g></svg>