<?xml version="1.0" encoding="UTF-8" standalone="no"?><!DOCTYPE svg PUBLIC "-//W3C//DTD SVG 1.1//EN" "http://www.w3.org/Graphics/SVG/1.1/DTD/svg11.dtd"><svg width="100%" height="100%" viewBox="0 0 800 450" version="1.1" xmlns="http://www.w3.org/2000/svg" xmlns:xlink="http://www.w3.org/1999/xlink" xml:space="preserve" xmlns:serif="http://www.serif.com/" style="fill-rule:evenodd;clip-rule:evenodd;stroke-linejoin:round;stroke-miterlimit:2;"><g id="python"><g id="word"><path id="path46" d="M171.439,229.456c-0,-29.522 -8.418,-44.679 -25.254,-45.509c-6.699,-0.316 -13.24,0.751 -19.603,3.221c-5.078,1.818 -8.497,3.616 -10.295,5.434l-0,70.467c10.769,6.758 20.333,9.9 28.672,9.406c17.647,-1.166 26.48,-15.492 26.48,-43.019Zm20.768,1.225c0,14.998 -3.517,27.448 -10.592,37.348c-7.884,11.204 -18.812,16.974 -32.782,17.29c-10.533,0.336 -21.381,-2.964 -32.546,-9.88l-0,64.044l-18.061,-6.442l-0,-142.158c2.964,-3.636 6.777,-6.758 11.401,-9.406c10.75,-6.264 23.812,-9.485 39.186,-9.643l0.257,0.257c14.049,-0.178 24.878,5.592 32.486,17.29c7.094,10.73 10.651,24.484 10.651,41.3Z" style="fill:#646464;fill-rule:nonzero;"/><path id="path48" d="M302.59,272.712c-0,20.116 -2.016,34.048 -6.047,41.794c-4.051,7.746 -11.757,13.931 -23.139,18.535c-9.229,3.636 -19.208,5.612 -29.918,5.948l-2.984,-11.382c10.888,-1.482 18.555,-2.964 23.001,-4.446c8.754,-2.964 14.762,-7.509 18.062,-13.595c2.648,-4.96 3.952,-14.426 3.952,-28.436l-0,-4.703c-12.351,5.612 -25.294,8.398 -38.83,8.398c-8.892,0 -16.737,-2.786 -23.495,-8.398c-7.588,-6.106 -11.382,-13.852 -11.382,-23.238l-0,-75.17l18.061,-6.185l-0,75.663c-0,8.083 2.608,14.307 7.825,18.674c5.217,4.367 11.975,6.462 20.255,6.304c8.279,-0.178 17.152,-3.379 26.578,-9.643l-0,-88.271l18.061,0l-0,98.151Z" style="fill:#646464;fill-rule:nonzero;"/><path id="path50" d="M373.096,284.331c-2.154,0.178 -4.13,0.257 -5.948,0.257c-10.216,0 -18.18,-2.43 -23.871,-7.311c-5.671,-4.881 -8.517,-11.62 -8.517,-20.215l0,-71.139l-12.37,0l0,-11.362l12.37,0l0,-30.174l18.042,-6.423l-0,36.597l20.294,0l-0,11.362l-20.294,0l-0,70.645c-0,6.777 1.818,11.579 5.454,14.385c3.122,2.312 8.082,3.636 14.84,3.972l-0,9.406Z" style="fill:#646464;fill-rule:nonzero;"/><path id="path52" d="M482.451,282.849l-18.061,0l0,-69.715c0,-7.094 -1.66,-13.2 -4.96,-18.299c-3.814,-5.77 -9.11,-8.655 -15.907,-8.655c-8.28,0 -18.635,4.367 -31.064,13.102l0,83.567l-18.061,0l-0,-166.641l18.061,-5.691l0,75.9c11.54,-8.398 24.148,-12.607 37.842,-12.607c9.564,0 17.31,3.221 23.238,9.643c5.948,6.422 8.912,14.426 8.912,23.99l0,75.406Z" style="fill:#646464;fill-rule:nonzero;"/><path id="path54" d="M578.448,226.61c0,-11.342 -2.154,-20.709 -6.442,-28.119c-5.098,-9.03 -13.022,-13.793 -23.732,-14.287c-19.8,1.146 -29.681,15.334 -29.681,42.525c0,12.469 2.056,22.883 6.205,31.242c5.296,10.651 13.24,15.907 23.832,15.729c19.879,-0.158 29.818,-15.848 29.818,-47.09Zm19.781,0.119c-0,16.144 -4.13,29.582 -12.37,40.312c-9.071,12.014 -21.599,18.041 -37.585,18.041c-15.848,0 -28.199,-6.027 -37.111,-18.041c-8.082,-10.73 -12.113,-24.168 -12.113,-40.312c0,-15.176 4.367,-27.941 13.101,-38.336c9.229,-11.026 21.362,-16.559 36.36,-16.559c14.998,0 27.21,5.533 36.616,16.559c8.735,10.395 13.102,23.16 13.102,38.336Z" style="fill:#646464;fill-rule:nonzero;"/><path id="path56" d="M701.774,282.849l-18.061,0l0,-73.667c0,-8.082 -2.43,-14.386 -7.291,-18.931c-4.862,-4.525 -11.343,-6.719 -19.425,-6.541c-8.576,0.158 -16.737,2.964 -24.484,8.398l0,90.741l-18.061,0l0,-92.974c10.394,-7.568 19.958,-12.508 28.693,-14.82c8.24,-2.154 15.512,-3.221 21.776,-3.221c4.288,0 8.319,0.415 12.113,1.245c7.094,1.64 12.864,4.683 17.31,9.149c4.96,4.94 7.43,10.868 7.43,17.804l0,82.817Z" style="fill:#646464;fill-rule:nonzero;"/></g><g id="icon"><path id="path1948" d="M646.726,55.517c-4.486,0.021 -8.77,0.403 -12.54,1.07c-11.105,1.962 -13.122,6.069 -13.122,13.642l0,10.001l26.243,0l0,3.334l-36.091,0c-7.627,0 -14.306,4.585 -16.395,13.305c-2.409,9.996 -2.516,16.234 0,26.672c1.866,7.769 6.321,13.305 13.948,13.305l9.023,-0l-0,-11.99c-0,-8.662 7.494,-16.303 16.394,-16.303l26.212,0c7.297,0 13.122,-6.007 13.122,-13.335l-0,-24.989c-0,-7.112 -6,-12.455 -13.122,-13.642c-4.508,-0.75 -9.185,-1.091 -13.672,-1.07Zm-14.192,8.044c2.711,-0 4.925,2.25 4.925,5.016c-0,2.757 -2.214,4.986 -4.925,4.986c-2.72,-0 -4.924,-2.229 -4.924,-4.986c-0,-2.766 2.204,-5.016 4.924,-5.016Z" style="fill:url(#_Linear1);fill-rule:nonzero;"/><path id="path1950" d="M676.793,83.564l-0,11.654c-0,9.034 -7.66,16.639 -16.395,16.639l-26.212,-0c-7.18,-0 -13.122,6.145 -13.122,13.335l0,24.989c0,7.112 6.185,11.296 13.122,13.336c8.307,2.443 16.273,2.884 26.212,-0c6.607,-1.913 13.122,-5.763 13.122,-13.336l-0,-10.001l-26.213,-0l0,-3.334l39.334,-0c7.627,-0 10.47,-5.32 13.122,-13.305c2.74,-8.221 2.623,-16.126 -0,-26.672c-1.885,-7.592 -5.485,-13.305 -13.122,-13.305l-9.848,0Zm-14.743,63.283c2.721,0 4.924,2.229 4.924,4.986c0,2.766 -2.203,5.016 -4.924,5.016c-2.711,0 -4.924,-2.25 -4.924,-5.016c-0,-2.757 2.213,-4.986 4.924,-4.986Z" style="fill:url(#_Linear2);fill-rule:nonzero;"/></g></g><defs><linearGradient id="_Linear1" x1="0" y1="0" x2="1" y2="0" gradientUnits="userSpaceOnUse" gradientTransform="matrix(60.0237,52.1409,-52.1409,60.0237,592.974,55.5158)"><stop offset="0" style="stop-color:#5a9fd4;stop-opacity:1"/><stop offset="1" style="stop-color:#306998;stop-opacity:1"/></linearGradient><linearGradient id="_Linear2" x1="0" y1="0" x2="1" y2="0" gradientUnits="userSpaceOnUse" gradientTransform="matrix(-21.4344,-30.6188,30.6188,-21.4344,661.419,150.992)"><stop offset="0" style="stop-color:#ffd43b;stop-opacity:1"/><stop offset="1" style="stop-color:#ffe873;stop-opacity:1"/></linearGradient></defs></svg>